<svg width="360" height="360" viewBox="0 0 360 360" fill="none" xmlns="http://www.w3.org/2000/svg">
<path d="M100.009 67.7305H65.5352V109.238H100.009V67.7305Z" stroke="#B2B2B2" stroke-linecap="round" stroke-linejoin="round"/>
<path d="M71.835 102.024V90C71.6191 90.247 71.3405 90.4311 71.0286 90.5328C70.6997 90.6583 70.3511 90.7242 69.999 90.7272V89.0496C70.4957 88.9771 70.9648 88.7761 71.3598 88.4664C71.796 88.1415 72.1346 87.7032 72.339 87.1992H74.0886V102.024H71.835Z" fill="#B2B2B2"/>
<path d="M76.6084 102.024V99.9504H78.4804V102.024H76.6084Z" fill="#B2B2B2"/>
<path d="M86.0119 101.138C85.7421 101.495 85.3871 101.778 84.9796 101.961C84.572 102.145 84.1248 102.224 83.6791 102.19C83.2539 102.226 82.826 102.167 82.4263 102.018C82.0266 101.868 81.6651 101.632 81.3679 101.326C80.8069 100.476 80.5529 99.4596 80.6479 98.4456V97.6392H82.8079V97.9488C82.7733 98.5668 82.8365 99.1864 82.9951 99.7848C83.0451 99.9314 83.1439 100.056 83.2749 100.139C83.4059 100.221 83.5613 100.257 83.7151 100.238C84.0535 100.238 84.2623 100.174 84.3415 100.037C84.4165 99.9075 84.4815 99.7727 84.5359 99.6336C84.6071 99.2007 84.6312 98.7613 84.6079 98.3232V96.12C84.1926 96.3569 83.7171 96.467 83.2399 96.4368C82.814 96.4778 82.3851 96.3975 82.0029 96.2051C81.6207 96.0127 81.3007 95.7161 81.0799 95.3496C80.5984 94.3201 80.383 93.1863 80.4535 92.052V91.5192C80.4535 89.676 80.7703 88.4376 81.4039 87.804C81.7009 87.5321 82.0499 87.3231 82.4297 87.1895C82.8095 87.0558 83.2125 87.0004 83.6143 87.0264C84.3621 86.9683 85.1077 87.1636 85.7311 87.5808C86.1967 87.9695 86.5103 88.51 86.6167 89.1072C86.7678 89.9432 86.8353 90.7922 86.8183 91.6416V97.56C86.7607 99.2376 86.5159 100.433 86.0119 101.138ZM83.5711 94.5792C83.6811 94.5964 83.7934 94.5913 83.9013 94.5642C84.0092 94.537 84.1106 94.4884 84.1993 94.4212C84.288 94.354 84.3623 94.2695 84.4176 94.173C84.473 94.0764 84.5083 93.9697 84.5215 93.8592V91.044C84.5485 90.5111 84.4827 89.9776 84.3271 89.4672C84.2584 89.324 84.1507 89.2031 84.0163 89.1185C83.8819 89.0339 83.7263 88.989 83.5675 88.989C83.4087 88.989 83.2531 89.0339 83.1187 89.1185C82.9843 89.2031 82.8766 89.324 82.8079 89.4672C82.6452 89.9811 82.5769 90.5202 82.6063 91.0584V92.376C82.5747 92.954 82.6404 93.5333 82.8007 94.0896C82.8527 94.2477 82.9579 94.3828 83.0984 94.4721C83.2389 94.5613 83.4059 94.5992 83.5711 94.5792Z" fill="#B2B2B2"/>
<path d="M94.0178 101.138C93.7479 101.495 93.393 101.778 92.9854 101.961C92.5778 102.145 92.1307 102.224 91.685 102.19C91.2598 102.226 90.8319 102.167 90.4321 102.018C90.0324 101.868 89.6709 101.632 89.3738 101.326C88.8128 100.476 88.5588 99.4596 88.6538 98.4456V97.6392H90.8138V97.9488C90.783 98.5667 90.8461 99.1858 91.001 99.7848C91.051 99.9314 91.1497 100.056 91.2808 100.139C91.4118 100.221 91.5672 100.257 91.721 100.238C92.0594 100.238 92.2682 100.174 92.3474 100.037C92.4223 99.9075 92.4873 99.7727 92.5418 99.6336C92.6129 99.2007 92.6371 98.7613 92.6138 98.3232V96.12C92.1985 96.3569 91.7229 96.467 91.2458 96.4368C90.8199 96.4769 90.3914 96.3962 90.0094 96.2039C89.6273 96.0116 89.3072 95.7155 89.0858 95.3496C88.6043 94.3201 88.3889 93.1863 88.4594 92.052V91.5192C88.4594 89.676 88.7762 88.4376 89.4098 87.804C89.707 87.5325 90.056 87.3237 90.4358 87.1901C90.8155 87.0565 91.2184 87.0008 91.6202 87.0264C92.368 86.9683 93.1136 87.1636 93.737 87.5808C94.2026 87.9695 94.5161 88.51 94.6226 89.1072C94.7736 89.9432 94.8412 90.7922 94.8242 91.6416V97.56C94.7666 99.2376 94.5218 100.433 94.0178 101.138ZM91.577 94.5792C91.6869 94.5964 91.7992 94.5913 91.9072 94.5642C92.0151 94.537 92.1165 94.4884 92.2052 94.4212C92.2939 94.354 92.3681 94.2695 92.4235 94.173C92.4789 94.0764 92.5142 93.9697 92.5274 93.8592V91.044C92.5543 90.5111 92.4886 89.9776 92.333 89.4672C92.2643 89.324 92.1566 89.2031 92.0222 89.1185C91.8878 89.0339 91.7322 88.989 91.5734 88.989C91.4145 88.989 91.259 89.0339 91.1246 89.1185C90.9902 89.2031 90.8824 89.324 90.8138 89.4672C90.651 89.9811 90.5827 90.5202 90.6122 91.0584V92.376C90.5806 92.954 90.6463 93.5333 90.8066 94.0896C90.8651 94.2433 90.9717 94.374 91.1105 94.4623C91.2493 94.5505 91.4129 94.5915 91.577 94.5792Z" fill="#B2B2B2"/>
<path d="M70.2217 84.4705H94.9969" stroke="#B2B2B2" stroke-linecap="round" stroke-linejoin="round"/>
<path d="M70.2217 81.1226H94.9969" stroke="#B2B2B2" stroke-linecap="round" stroke-linejoin="round"/>
<path d="M96.2783 74.9232L87.4799 69.8472V72.7992H70.5527V77.0472H87.4799V79.9992L96.2783 74.9232Z" stroke="#B2B2B2" stroke-linecap="round" stroke-linejoin="round"/>
<path d="M140.58 89.9497H104.177V108.879H140.58V89.9497Z" stroke="#B2B2B2" stroke-linecap="round" stroke-linejoin="round"/>
<path d="M104.343 96.5017H140.58" stroke="#B2B2B2" stroke-linecap="round" stroke-linejoin="round"/>
<path d="M179.461 89.9497H143.058V108.879H179.461V89.9497Z" stroke="#B2B2B2" stroke-linecap="round" stroke-linejoin="round"/>
<path d="M143.223 96.5017H179.46" stroke="#B2B2B2" stroke-linecap="round" stroke-linejoin="round"/>
<path d="M218.341 89.9497H181.938V108.879H218.341V89.9497Z" stroke="#B2B2B2" stroke-linecap="round" stroke-linejoin="round"/>
<path d="M182.103 96.5017H218.34" stroke="#B2B2B2" stroke-linecap="round" stroke-linejoin="round"/>
<path d="M257.221 89.9497H220.817V108.879H257.221V89.9497Z" stroke="#B2B2B2" stroke-linecap="round" stroke-linejoin="round"/>
<path d="M220.982 96.5017H257.22" stroke="#B2B2B2" stroke-linecap="round" stroke-linejoin="round"/>
<path d="M296.1 89.9497H259.697V108.879H296.1V89.9497Z" stroke="#B2B2B2" stroke-linecap="round" stroke-linejoin="round"/>
<path d="M259.863 96.5017H296.101" stroke="#B2B2B2" stroke-linecap="round" stroke-linejoin="round"/>
<path d="M55.8076 109.224H306.692" stroke="#B2B2B2" stroke-linecap="round" stroke-linejoin="round"/>
<path d="M55.8076 116.424H306.692" stroke="#B2B2B2" stroke-linecap="round" stroke-linejoin="round"/>
<path d="M55.8076 148.234H306.692" stroke="#B2B2B2" stroke-linecap="round" stroke-linejoin="round"/>
<path d="M306.612 155.643H272.139V197.151H306.612V155.643Z" stroke="#B2B2B2" stroke-linecap="round" stroke-linejoin="round"/>
<path d="M278.431 189.929V177.912C278.214 178.157 277.936 178.341 277.625 178.445C277.297 178.565 276.951 178.628 276.603 178.632V176.954C277.096 176.883 277.562 176.684 277.956 176.378C278.391 176.048 278.731 175.608 278.943 175.104H280.692V189.929H278.431Z" fill="#B2B2B2"/>
<path d="M283.205 189.929V187.863H285.12V189.929H283.205Z" fill="#B2B2B2"/>
<path d="M292.615 189.043C292.346 189.401 291.992 189.686 291.584 189.87C291.177 190.055 290.729 190.135 290.283 190.102C289.856 190.138 289.426 190.079 289.025 189.928C288.624 189.777 288.262 189.539 287.964 189.231C287.402 188.381 287.147 187.365 287.244 186.351V185.544H289.404V185.854C289.377 186.469 289.44 187.085 289.591 187.683C289.64 187.83 289.738 187.957 289.869 188.041C290.001 188.125 290.157 188.161 290.311 188.143C290.65 188.143 290.851 188.071 290.931 187.935C291.006 187.805 291.071 187.67 291.125 187.531C291.201 187.099 291.227 186.659 291.204 186.221V184.032C290.785 184.266 290.308 184.374 289.829 184.342C289.409 184.378 288.986 184.296 288.611 184.103C288.235 183.911 287.921 183.617 287.705 183.255C287.223 182.228 287.008 181.096 287.079 179.964V179.424C287.079 177.581 287.395 176.343 288.029 175.709C288.615 175.192 289.38 174.924 290.16 174.96C290.905 174.899 291.649 175.092 292.27 175.507C292.737 175.897 293.051 176.441 293.155 177.041C293.31 177.877 293.38 178.726 293.364 179.575V185.494C293.364 187.15 293.112 188.338 292.615 189.043ZM290.175 182.491C290.284 182.508 290.396 182.502 290.504 182.474C290.611 182.447 290.712 182.398 290.801 182.331C290.889 182.264 290.964 182.18 291.019 182.084C291.075 181.988 291.111 181.881 291.125 181.771V178.963C291.156 178.43 291.088 177.895 290.923 177.387C290.871 177.232 290.767 177.101 290.63 177.013C290.492 176.926 290.329 176.887 290.167 176.904C290.004 176.892 289.842 176.934 289.704 177.022C289.567 177.11 289.461 177.241 289.404 177.394C289.241 177.908 289.173 178.447 289.203 178.985V180.31C289.169 180.886 289.237 181.464 289.404 182.016C289.458 182.169 289.562 182.299 289.7 182.385C289.837 182.471 289.999 182.509 290.16 182.491H290.175Z" fill="#B2B2B2"/>
<path d="M300.622 189.043C300.353 189.401 299.999 189.685 299.591 189.87C299.183 190.055 298.736 190.135 298.289 190.102C297.863 190.138 297.433 190.079 297.032 189.928C296.631 189.777 296.268 189.539 295.971 189.23C295.408 188.381 295.154 187.365 295.251 186.35V185.544H297.411V185.854C297.383 186.469 297.446 187.085 297.598 187.682C297.647 187.83 297.745 187.957 297.876 188.041C298.007 188.125 298.164 188.161 298.318 188.143C298.657 188.143 298.858 188.071 298.937 187.934C299.012 187.805 299.077 187.67 299.132 187.531C299.208 187.099 299.234 186.659 299.211 186.221V184.032C298.792 184.266 298.315 184.374 297.836 184.342C297.415 184.378 296.993 184.296 296.618 184.103C296.242 183.911 295.928 183.617 295.712 183.254C295.23 182.228 295.015 181.096 295.085 179.964V179.424C295.085 177.581 295.402 176.342 296.036 175.709C296.334 175.439 296.683 175.232 297.063 175.1C297.443 174.968 297.845 174.913 298.246 174.938C298.991 174.877 299.735 175.07 300.356 175.486C300.823 175.876 301.137 176.419 301.241 177.019C301.396 177.855 301.466 178.704 301.45 179.554V185.472C301.371 187.15 301.119 188.338 300.622 189.043ZM298.181 182.491C298.291 182.507 298.403 182.502 298.511 182.474C298.618 182.446 298.719 182.398 298.808 182.331C298.896 182.264 298.971 182.18 299.026 182.084C299.082 181.988 299.118 181.881 299.132 181.771V178.963C299.163 178.43 299.094 177.895 298.93 177.386C298.877 177.232 298.774 177.101 298.637 177.013C298.499 176.926 298.336 176.887 298.174 176.904C298.011 176.892 297.849 176.933 297.711 177.022C297.573 177.11 297.468 177.24 297.411 177.394C297.248 177.907 297.18 178.447 297.209 178.985V180.31C297.175 180.886 297.244 181.464 297.411 182.016C297.466 182.171 297.572 182.303 297.712 182.39C297.852 182.476 298.018 182.512 298.181 182.491Z" fill="#B2B2B2"/>
<path d="M276.826 172.375H301.594" stroke="#B2B2B2" stroke-linecap="round" stroke-linejoin="round"/>
<path d="M276.826 169.027H301.594" stroke="#B2B2B2" stroke-linecap="round" stroke-linejoin="round"/>
<path d="M302.876 162.835L294.078 157.752V160.704H277.15V164.959H294.078V167.911L302.876 162.835Z" stroke="#B2B2B2" stroke-linecap="round" stroke-linejoin="round"/>
<path d="M55.8076 155.441H306.692" stroke="#B2B2B2" stroke-linecap="round" stroke-linejoin="round"/>
<path d="M55.8076 187.416H270.54" stroke="#B2B2B2" stroke-linecap="round" stroke-linejoin="round"/>
<path d="M55.8076 194.616H270.54" stroke="#B2B2B2" stroke-linecap="round" stroke-linejoin="round"/>
<path d="M55.8076 226.26H306.692" stroke="#B2B2B2" stroke-linecap="round" stroke-linejoin="round"/>
<path d="M55.8076 233.467H306.692" stroke="#B2B2B2" stroke-linecap="round" stroke-linejoin="round"/>
<path d="M55.8076 265.277H306.692" stroke="#B2B2B2" stroke-linecap="round" stroke-linejoin="round"/>
<path d="M55.8076 272.477H306.692" stroke="#B2B2B2" stroke-linecap="round" stroke-linejoin="round"/>
<path d="M79.3878 120.298H65.8662V148.234H79.3878V120.298Z" stroke="#B2B2B2" stroke-linecap="round" stroke-linejoin="round"/>
<path d="M75.8304 122.033H68.832V140.515H75.8304V122.033Z" stroke="#B2B2B2" stroke-linecap="round" stroke-linejoin="round"/>
<path d="M68.6953 143.028H75.9601" stroke="#B2B2B2" stroke-linecap="round" stroke-linejoin="round"/>
<path d="M68.6953 145.267H75.9601" stroke="#B2B2B2" stroke-linecap="round" stroke-linejoin="round"/>
<path d="M93.9103 120.298H80.3887V148.234H93.9103V120.298Z" stroke="#B2B2B2" stroke-linecap="round" stroke-linejoin="round"/>
<path d="M90.3529 122.033H83.3545V140.515H90.3529V122.033Z" stroke="#B2B2B2" stroke-linecap="round" stroke-linejoin="round"/>
<path d="M83.2178 143.028H90.4826" stroke="#B2B2B2" stroke-linecap="round" stroke-linejoin="round"/>
<path d="M83.2178 145.267H90.4826" stroke="#B2B2B2" stroke-linecap="round" stroke-linejoin="round"/>
<path d="M108.433 120.298H94.9111V148.234H108.433V120.298Z" stroke="#B2B2B2" stroke-linecap="round" stroke-linejoin="round"/>
<path d="M104.875 122.033H97.877V140.515H104.875V122.033Z" stroke="#B2B2B2" stroke-linecap="round" stroke-linejoin="round"/>
<path d="M97.7402 143.028H105.005" stroke="#B2B2B2" stroke-linecap="round" stroke-linejoin="round"/>
<path d="M97.7402 145.267H105.005" stroke="#B2B2B2" stroke-linecap="round" stroke-linejoin="round"/>
<path d="M122.955 120.298H109.434V148.234H122.955V120.298Z" stroke="#B2B2B2" stroke-linecap="round" stroke-linejoin="round"/>
<path d="M119.398 122.033H112.399V140.515H119.398V122.033Z" stroke="#B2B2B2" stroke-linecap="round" stroke-linejoin="round"/>
<path d="M112.263 143.028H119.527" stroke="#B2B2B2" stroke-linecap="round" stroke-linejoin="round"/>
<path d="M112.263 145.267H119.527" stroke="#B2B2B2" stroke-linecap="round" stroke-linejoin="round"/>
<path d="M137.478 120.298H123.956V148.234H137.478V120.298Z" stroke="#B2B2B2" stroke-linecap="round" stroke-linejoin="round"/>
<path d="M133.92 122.033H126.922V140.515H133.92V122.033Z" stroke="#B2B2B2" stroke-linecap="round" stroke-linejoin="round"/>
<path d="M126.785 143.028H134.05" stroke="#B2B2B2" stroke-linecap="round" stroke-linejoin="round"/>
<path d="M126.785 145.267H134.05" stroke="#B2B2B2" stroke-linecap="round" stroke-linejoin="round"/>
<path d="M151.999 120.298H138.478V148.234H151.999V120.298Z" stroke="#B2B2B2" stroke-linecap="round" stroke-linejoin="round"/>
<path d="M148.443 122.033H141.444V140.515H148.443V122.033Z" stroke="#B2B2B2" stroke-linecap="round" stroke-linejoin="round"/>
<path d="M141.308 143.028H148.572" stroke="#B2B2B2" stroke-linecap="round" stroke-linejoin="round"/>
<path d="M141.308 145.267H148.572" stroke="#B2B2B2" stroke-linecap="round" stroke-linejoin="round"/>
<path d="M166.522 120.298H153V148.234H166.522V120.298Z" stroke="#B2B2B2" stroke-linecap="round" stroke-linejoin="round"/>
<path d="M162.958 122.033H155.96V140.515H162.958V122.033Z" stroke="#B2B2B2" stroke-linecap="round" stroke-linejoin="round"/>
<path d="M155.83 143.028H163.095" stroke="#B2B2B2" stroke-linecap="round" stroke-linejoin="round"/>
<path d="M155.83 145.267H163.095" stroke="#B2B2B2" stroke-linecap="round" stroke-linejoin="round"/>
<path d="M181.044 120.298H167.522V148.234H181.044V120.298Z" stroke="#B2B2B2" stroke-linecap="round" stroke-linejoin="round"/>
<path d="M177.481 122.033H170.482V140.515H177.481V122.033Z" stroke="#B2B2B2" stroke-linecap="round" stroke-linejoin="round"/>
<path d="M170.353 143.028H177.617" stroke="#B2B2B2" stroke-linecap="round" stroke-linejoin="round"/>
<path d="M170.353 145.267H177.617" stroke="#B2B2B2" stroke-linecap="round" stroke-linejoin="round"/>
<path d="M195.567 120.298H182.045V148.234H195.567V120.298Z" stroke="#B2B2B2" stroke-linecap="round" stroke-linejoin="round"/>
<path d="M192.003 122.033H185.005V140.515H192.003V122.033Z" stroke="#B2B2B2" stroke-linecap="round" stroke-linejoin="round"/>
<path d="M184.875 143.028H192.14" stroke="#B2B2B2" stroke-linecap="round" stroke-linejoin="round"/>
<path d="M184.875 145.267H192.14" stroke="#B2B2B2" stroke-linecap="round" stroke-linejoin="round"/>
<path d="M210.089 120.298H196.567V148.234H210.089V120.298Z" stroke="#B2B2B2" stroke-linecap="round" stroke-linejoin="round"/>
<path d="M206.525 122.033H199.526V140.515H206.525V122.033Z" stroke="#B2B2B2" stroke-linecap="round" stroke-linejoin="round"/>
<path d="M199.397 143.028H206.655" stroke="#B2B2B2" stroke-linecap="round" stroke-linejoin="round"/>
<path d="M199.397 145.267H206.655" stroke="#B2B2B2" stroke-linecap="round" stroke-linejoin="round"/>
<path d="M224.611 120.298H211.09V148.234H224.611V120.298Z" stroke="#B2B2B2" stroke-linecap="round" stroke-linejoin="round"/>
<path d="M221.047 122.033H214.049V140.515H221.047V122.033Z" stroke="#B2B2B2" stroke-linecap="round" stroke-linejoin="round"/>
<path d="M213.92 143.028H221.178" stroke="#B2B2B2" stroke-linecap="round" stroke-linejoin="round"/>
<path d="M213.92 145.267H221.178" stroke="#B2B2B2" stroke-linecap="round" stroke-linejoin="round"/>
<path d="M239.134 120.298H225.612V148.234H239.134V120.298Z" stroke="#B2B2B2" stroke-linecap="round" stroke-linejoin="round"/>
<path d="M235.57 122.033H228.571V140.515H235.57V122.033Z" stroke="#B2B2B2" stroke-linecap="round" stroke-linejoin="round"/>
<path d="M228.442 143.028H235.7" stroke="#B2B2B2" stroke-linecap="round" stroke-linejoin="round"/>
<path d="M228.442 145.267H235.7" stroke="#B2B2B2" stroke-linecap="round" stroke-linejoin="round"/>
<path d="M253.656 120.298H240.135V148.234H253.656V120.298Z" stroke="#B2B2B2" stroke-linecap="round" stroke-linejoin="round"/>
<path d="M250.092 122.033H243.094V140.515H250.092V122.033Z" stroke="#B2B2B2" stroke-linecap="round" stroke-linejoin="round"/>
<path d="M242.965 143.028H250.222" stroke="#B2B2B2" stroke-linecap="round" stroke-linejoin="round"/>
<path d="M242.965 145.267H250.222" stroke="#B2B2B2" stroke-linecap="round" stroke-linejoin="round"/>
<path d="M268.179 120.298H254.657V148.234H268.179V120.298Z" stroke="#B2B2B2" stroke-linecap="round" stroke-linejoin="round"/>
<path d="M264.615 122.033H257.616V140.515H264.615V122.033Z" stroke="#B2B2B2" stroke-linecap="round" stroke-linejoin="round"/>
<path d="M257.486 143.028H264.744" stroke="#B2B2B2" stroke-linecap="round" stroke-linejoin="round"/>
<path d="M257.486 145.267H264.744" stroke="#B2B2B2" stroke-linecap="round" stroke-linejoin="round"/>
<path d="M282.694 120.298H269.173V148.234H282.694V120.298Z" stroke="#B2B2B2" stroke-linecap="round" stroke-linejoin="round"/>
<path d="M279.137 122.033H272.139V140.515H279.137V122.033Z" stroke="#B2B2B2" stroke-linecap="round" stroke-linejoin="round"/>
<path d="M272.009 143.028H279.266" stroke="#B2B2B2" stroke-linecap="round" stroke-linejoin="round"/>
<path d="M272.009 145.267H279.266" stroke="#B2B2B2" stroke-linecap="round" stroke-linejoin="round"/>
<path d="M297.216 120.298H283.694V148.234H297.216V120.298Z" stroke="#B2B2B2" stroke-linecap="round" stroke-linejoin="round"/>
<path d="M293.66 122.033H286.661V140.515H293.66V122.033Z" stroke="#B2B2B2" stroke-linecap="round" stroke-linejoin="round"/>
<path d="M286.531 143.028H293.789" stroke="#B2B2B2" stroke-linecap="round" stroke-linejoin="round"/>
<path d="M286.531 145.267H293.789" stroke="#B2B2B2" stroke-linecap="round" stroke-linejoin="round"/>
<path d="M78.7977 172.383H68.3145V187.359H78.7977V172.383Z" stroke="#B2B2B2" stroke-linecap="round" stroke-linejoin="round"/>
<path d="M68.7168 174.082H78.7248" stroke="#B2B2B2" stroke-linecap="round" stroke-linejoin="round"/>
<path d="M68.7168 185.803H78.7248" stroke="#B2B2B2" stroke-linecap="round" stroke-linejoin="round"/>
<path d="M73.5272 183.038C75.4557 183.038 77.0192 181.475 77.0192 179.546C77.0192 177.618 75.4557 176.054 73.5272 176.054C71.5986 176.054 70.0352 177.618 70.0352 179.546C70.0352 181.475 71.5986 183.038 73.5272 183.038Z" stroke="#B2B2B2" stroke-linecap="round" stroke-linejoin="round"/>
<path d="M90.4969 172.383H80.0137V187.359H90.4969V172.383Z" stroke="#B2B2B2" stroke-linecap="round" stroke-linejoin="round"/>
<path d="M80.417 174.082H90.425" stroke="#B2B2B2" stroke-linecap="round" stroke-linejoin="round"/>
<path d="M80.417 185.803H90.425" stroke="#B2B2B2" stroke-linecap="round" stroke-linejoin="round"/>
<path d="M85.2264 183.038C87.155 183.038 88.7184 181.475 88.7184 179.546C88.7184 177.618 87.155 176.054 85.2264 176.054C83.2978 176.054 81.7344 177.618 81.7344 179.546C81.7344 181.475 83.2978 183.038 85.2264 183.038Z" stroke="#B2B2B2" stroke-linecap="round" stroke-linejoin="round"/>
<path d="M102.197 172.383H91.7139V187.359H102.197V172.383Z" stroke="#B2B2B2" stroke-linecap="round" stroke-linejoin="round"/>
<path d="M92.1172 174.082H102.125" stroke="#B2B2B2" stroke-linecap="round" stroke-linejoin="round"/>
<path d="M92.1172 185.803H102.125" stroke="#B2B2B2" stroke-linecap="round" stroke-linejoin="round"/>
<path d="M96.9266 183.038C98.8551 183.038 100.419 181.475 100.419 179.546C100.419 177.618 98.8551 176.054 96.9266 176.054C94.998 176.054 93.4346 177.618 93.4346 179.546C93.4346 181.475 94.998 183.038 96.9266 183.038Z" stroke="#B2B2B2" stroke-linecap="round" stroke-linejoin="round"/>
<path d="M113.897 172.383H103.414V187.359H113.897V172.383Z" stroke="#B2B2B2" stroke-linecap="round" stroke-linejoin="round"/>
<path d="M103.817 174.082H113.825" stroke="#B2B2B2" stroke-linecap="round" stroke-linejoin="round"/>
<path d="M103.817 185.803H113.825" stroke="#B2B2B2" stroke-linecap="round" stroke-linejoin="round"/>
<path d="M108.627 183.038C110.555 183.038 112.119 181.475 112.119 179.546C112.119 177.618 110.555 176.054 108.627 176.054C106.698 176.054 105.135 177.618 105.135 179.546C105.135 181.475 106.698 183.038 108.627 183.038Z" stroke="#B2B2B2" stroke-linecap="round" stroke-linejoin="round"/>
<path d="M125.597 172.383H115.114V187.359H125.597V172.383Z" stroke="#B2B2B2" stroke-linecap="round" stroke-linejoin="round"/>
<path d="M115.518 174.082H125.526" stroke="#B2B2B2" stroke-linecap="round" stroke-linejoin="round"/>
<path d="M115.518 185.803H125.526" stroke="#B2B2B2" stroke-linecap="round" stroke-linejoin="round"/>
<path d="M120.327 183.038C122.256 183.038 123.819 181.475 123.819 179.546C123.819 177.618 122.256 176.054 120.327 176.054C118.398 176.054 116.835 177.618 116.835 179.546C116.835 181.475 118.398 183.038 120.327 183.038Z" stroke="#B2B2B2" stroke-linecap="round" stroke-linejoin="round"/>
<path d="M137.298 172.383H126.814V187.359H137.298V172.383Z" stroke="#B2B2B2" stroke-linecap="round" stroke-linejoin="round"/>
<path d="M127.217 174.082H137.225" stroke="#B2B2B2" stroke-linecap="round" stroke-linejoin="round"/>
<path d="M127.217 185.803H137.225" stroke="#B2B2B2" stroke-linecap="round" stroke-linejoin="round"/>
<path d="M132.027 183.038C133.956 183.038 135.519 181.475 135.519 179.546C135.519 177.618 133.956 176.054 132.027 176.054C130.099 176.054 128.535 177.618 128.535 179.546C128.535 181.475 130.099 183.038 132.027 183.038Z" stroke="#B2B2B2" stroke-linecap="round" stroke-linejoin="round"/>
<path d="M148.997 172.383H138.514V187.359H148.997V172.383Z" stroke="#B2B2B2" stroke-linecap="round" stroke-linejoin="round"/>
<path d="M138.917 174.082H148.925" stroke="#B2B2B2" stroke-linecap="round" stroke-linejoin="round"/>
<path d="M138.917 185.803H148.925" stroke="#B2B2B2" stroke-linecap="round" stroke-linejoin="round"/>
<path d="M143.726 183.038C145.655 183.038 147.218 181.475 147.218 179.546C147.218 177.618 145.655 176.054 143.726 176.054C141.798 176.054 140.234 177.618 140.234 179.546C140.234 181.475 141.798 183.038 143.726 183.038Z" stroke="#B2B2B2" stroke-linecap="round" stroke-linejoin="round"/>
<path d="M83.8592 157.176H73.376V172.152H83.8592V157.176Z" stroke="#B2B2B2" stroke-linecap="round" stroke-linejoin="round"/>
<path d="M73.7861 158.875H83.7941" stroke="#B2B2B2" stroke-linecap="round" stroke-linejoin="round"/>
<path d="M73.7861 170.597H83.7941" stroke="#B2B2B2" stroke-linecap="round" stroke-linejoin="round"/>
<path d="M78.5887 167.832C80.5173 167.832 82.0807 166.269 82.0807 164.34C82.0807 162.412 80.5173 160.848 78.5887 160.848C76.6601 160.848 75.0967 162.412 75.0967 164.34C75.0967 166.269 76.6601 167.832 78.5887 167.832Z" stroke="#B2B2B2" stroke-linecap="round" stroke-linejoin="round"/>
<path d="M95.5584 157.176H85.0752V172.152H95.5584V157.176Z" stroke="#B2B2B2" stroke-linecap="round" stroke-linejoin="round"/>
<path d="M85.4863 158.875H95.4943" stroke="#B2B2B2" stroke-linecap="round" stroke-linejoin="round"/>
<path d="M85.4863 170.597H95.4943" stroke="#B2B2B2" stroke-linecap="round" stroke-linejoin="round"/>
<path d="M90.2889 167.832C92.2175 167.832 93.7809 166.269 93.7809 164.34C93.7809 162.412 92.2175 160.848 90.2889 160.848C88.3603 160.848 86.7969 162.412 86.7969 164.34C86.7969 166.269 88.3603 167.832 90.2889 167.832Z" stroke="#B2B2B2" stroke-linecap="round" stroke-linejoin="round"/>
<path d="M107.259 157.176H96.7754V172.152H107.259V157.176Z" stroke="#B2B2B2" stroke-linecap="round" stroke-linejoin="round"/>
<path d="M97.1855 158.875H107.194" stroke="#B2B2B2" stroke-linecap="round" stroke-linejoin="round"/>
<path d="M97.1855 170.597H107.194" stroke="#B2B2B2" stroke-linecap="round" stroke-linejoin="round"/>
<path d="M101.988 167.832C103.917 167.832 105.48 166.269 105.48 164.34C105.48 162.412 103.917 160.848 101.988 160.848C100.06 160.848 98.4961 162.412 98.4961 164.34C98.4961 166.269 100.06 167.832 101.988 167.832Z" stroke="#B2B2B2" stroke-linecap="round" stroke-linejoin="round"/>
<path d="M118.959 157.176H108.476V172.152H118.959V157.176Z" stroke="#B2B2B2" stroke-linecap="round" stroke-linejoin="round"/>
<path d="M108.886 158.875H118.894" stroke="#B2B2B2" stroke-linecap="round" stroke-linejoin="round"/>
<path d="M108.886 170.597H118.894" stroke="#B2B2B2" stroke-linecap="round" stroke-linejoin="round"/>
<path d="M113.688 167.832C115.617 167.832 117.18 166.269 117.18 164.34C117.18 162.412 115.617 160.848 113.688 160.848C111.76 160.848 110.196 162.412 110.196 164.34C110.196 166.269 111.76 167.832 113.688 167.832Z" stroke="#B2B2B2" stroke-linecap="round" stroke-linejoin="round"/>
<path d="M130.659 157.176H120.176V172.152H130.659V157.176Z" stroke="#B2B2B2" stroke-linecap="round" stroke-linejoin="round"/>
<path d="M120.586 158.875H130.594" stroke="#B2B2B2" stroke-linecap="round" stroke-linejoin="round"/>
<path d="M120.586 170.597H130.594" stroke="#B2B2B2" stroke-linecap="round" stroke-linejoin="round"/>
<path d="M125.388 167.832C127.317 167.832 128.88 166.269 128.88 164.34C128.88 162.412 127.317 160.848 125.388 160.848C123.46 160.848 121.896 162.412 121.896 164.34C121.896 166.269 123.46 167.832 125.388 167.832Z" stroke="#B2B2B2" stroke-linecap="round" stroke-linejoin="round"/>
<path d="M142.359 157.176H131.876V172.152H142.359V157.176Z" stroke="#B2B2B2" stroke-linecap="round" stroke-linejoin="round"/>
<path d="M132.286 158.875H142.294" stroke="#B2B2B2" stroke-linecap="round" stroke-linejoin="round"/>
<path d="M132.286 170.597H142.294" stroke="#B2B2B2" stroke-linecap="round" stroke-linejoin="round"/>
<path d="M137.089 167.832C139.017 167.832 140.581 166.269 140.581 164.34C140.581 162.412 139.017 160.848 137.089 160.848C135.16 160.848 133.597 162.412 133.597 164.34C133.597 166.269 135.16 167.832 137.089 167.832Z" stroke="#B2B2B2" stroke-linecap="round" stroke-linejoin="round"/>
<path d="M160.51 172.383H150.026V187.359H160.51V172.383Z" stroke="#B2B2B2" stroke-linecap="round" stroke-linejoin="round"/>
<path d="M150.438 174.082H160.445" stroke="#B2B2B2" stroke-linecap="round" stroke-linejoin="round"/>
<path d="M150.438 185.803H160.445" stroke="#B2B2B2" stroke-linecap="round" stroke-linejoin="round"/>
<path d="M155.24 183.038C157.169 183.038 158.732 181.475 158.732 179.546C158.732 177.618 157.169 176.054 155.24 176.054C153.311 176.054 151.748 177.618 151.748 179.546C151.748 181.475 153.311 183.038 155.24 183.038Z" stroke="#B2B2B2" stroke-linecap="round" stroke-linejoin="round"/>
<path d="M172.21 172.383H161.727V187.359H172.21V172.383Z" stroke="#B2B2B2" stroke-linecap="round" stroke-linejoin="round"/>
<path d="M162.138 174.082H172.146" stroke="#B2B2B2" stroke-linecap="round" stroke-linejoin="round"/>
<path d="M162.138 185.803H172.146" stroke="#B2B2B2" stroke-linecap="round" stroke-linejoin="round"/>
<path d="M166.939 183.038C168.868 183.038 170.431 181.475 170.431 179.546C170.431 177.618 168.868 176.054 166.939 176.054C165.011 176.054 163.447 177.618 163.447 179.546C163.447 181.475 165.011 183.038 166.939 183.038Z" stroke="#B2B2B2" stroke-linecap="round" stroke-linejoin="round"/>
<path d="M183.91 172.383H173.427V187.359H183.91V172.383Z" stroke="#B2B2B2" stroke-linecap="round" stroke-linejoin="round"/>
<path d="M173.837 174.082H183.845" stroke="#B2B2B2" stroke-linecap="round" stroke-linejoin="round"/>
<path d="M173.837 185.803H183.845" stroke="#B2B2B2" stroke-linecap="round" stroke-linejoin="round"/>
<path d="M178.639 183.038C180.568 183.038 182.131 181.475 182.131 179.546C182.131 177.618 180.568 176.054 178.639 176.054C176.711 176.054 175.147 177.618 175.147 179.546C175.147 181.475 176.711 183.038 178.639 183.038Z" stroke="#B2B2B2" stroke-linecap="round" stroke-linejoin="round"/>
<path d="M195.61 172.383H185.127V187.359H195.61V172.383Z" stroke="#B2B2B2" stroke-linecap="round" stroke-linejoin="round"/>
<path d="M185.537 174.082H195.545" stroke="#B2B2B2" stroke-linecap="round" stroke-linejoin="round"/>
<path d="M185.537 185.803H195.545" stroke="#B2B2B2" stroke-linecap="round" stroke-linejoin="round"/>
<path d="M190.34 183.038C192.268 183.038 193.832 181.475 193.832 179.546C193.832 177.618 192.268 176.054 190.34 176.054C188.411 176.054 186.848 177.618 186.848 179.546C186.848 181.475 188.411 183.038 190.34 183.038Z" stroke="#B2B2B2" stroke-linecap="round" stroke-linejoin="round"/>
<path d="M207.31 172.383H196.827V187.359H207.31V172.383Z" stroke="#B2B2B2" stroke-linecap="round" stroke-linejoin="round"/>
<path d="M197.237 174.082H207.245" stroke="#B2B2B2" stroke-linecap="round" stroke-linejoin="round"/>
<path d="M197.237 185.803H207.245" stroke="#B2B2B2" stroke-linecap="round" stroke-linejoin="round"/>
<path d="M202.04 183.038C203.968 183.038 205.532 181.475 205.532 179.546C205.532 177.618 203.968 176.054 202.04 176.054C200.111 176.054 198.548 177.618 198.548 179.546C198.548 181.475 200.111 183.038 202.04 183.038Z" stroke="#B2B2B2" stroke-linecap="round" stroke-linejoin="round"/>
<path d="M219.01 172.383H208.526V187.359H219.01V172.383Z" stroke="#B2B2B2" stroke-linecap="round" stroke-linejoin="round"/>
<path d="M208.938 174.082H218.945" stroke="#B2B2B2" stroke-linecap="round" stroke-linejoin="round"/>
<path d="M208.938 185.803H218.945" stroke="#B2B2B2" stroke-linecap="round" stroke-linejoin="round"/>
<path d="M213.74 183.038C215.669 183.038 217.232 181.475 217.232 179.546C217.232 177.618 215.669 176.054 213.74 176.054C211.811 176.054 210.248 177.618 210.248 179.546C210.248 181.475 211.811 183.038 213.74 183.038Z" stroke="#B2B2B2" stroke-linecap="round" stroke-linejoin="round"/>
<path d="M153.879 157.176H143.396V172.152H153.879V157.176Z" stroke="#B2B2B2" stroke-linecap="round" stroke-linejoin="round"/>
<path d="M143.799 158.875H153.814" stroke="#B2B2B2" stroke-linecap="round" stroke-linejoin="round"/>
<path d="M143.799 170.597H153.814" stroke="#B2B2B2" stroke-linecap="round" stroke-linejoin="round"/>
<path d="M148.608 167.832C150.537 167.832 152.1 166.269 152.1 164.34C152.1 162.412 150.537 160.848 148.608 160.848C146.68 160.848 145.116 162.412 145.116 164.34C145.116 166.269 146.68 167.832 148.608 167.832Z" stroke="#B2B2B2" stroke-linecap="round" stroke-linejoin="round"/>
<path d="M165.579 157.176H155.096V172.152H165.579V157.176Z" stroke="#B2B2B2" stroke-linecap="round" stroke-linejoin="round"/>
<path d="M155.499 158.875H165.514" stroke="#B2B2B2" stroke-linecap="round" stroke-linejoin="round"/>
<path d="M155.499 170.597H165.514" stroke="#B2B2B2" stroke-linecap="round" stroke-linejoin="round"/>
<path d="M160.308 167.832C162.237 167.832 163.8 166.269 163.8 164.34C163.8 162.412 162.237 160.848 160.308 160.848C158.38 160.848 156.816 162.412 156.816 164.34C156.816 166.269 158.38 167.832 160.308 167.832Z" stroke="#B2B2B2" stroke-linecap="round" stroke-linejoin="round"/>
<path d="M177.279 157.176H166.796V172.152H177.279V157.176Z" stroke="#B2B2B2" stroke-linecap="round" stroke-linejoin="round"/>
<path d="M167.199 158.875H177.214" stroke="#B2B2B2" stroke-linecap="round" stroke-linejoin="round"/>
<path d="M167.199 170.597H177.214" stroke="#B2B2B2" stroke-linecap="round" stroke-linejoin="round"/>
<path d="M172.009 167.832C173.937 167.832 175.501 166.269 175.501 164.34C175.501 162.412 173.937 160.848 172.009 160.848C170.08 160.848 168.517 162.412 168.517 164.34C168.517 166.269 170.08 167.832 172.009 167.832Z" stroke="#B2B2B2" stroke-linecap="round" stroke-linejoin="round"/>
<path d="M188.979 157.176H178.496V172.152H188.979V157.176Z" stroke="#B2B2B2" stroke-linecap="round" stroke-linejoin="round"/>
<path d="M178.898 158.875H188.914" stroke="#B2B2B2" stroke-linecap="round" stroke-linejoin="round"/>
<path d="M178.898 170.597H188.914" stroke="#B2B2B2" stroke-linecap="round" stroke-linejoin="round"/>
<path d="M183.709 167.832C185.637 167.832 187.201 166.269 187.201 164.34C187.201 162.412 185.637 160.848 183.709 160.848C181.78 160.848 180.217 162.412 180.217 164.34C180.217 166.269 181.78 167.832 183.709 167.832Z" stroke="#B2B2B2" stroke-linecap="round" stroke-linejoin="round"/>
<path d="M200.679 157.176H190.195V172.152H200.679V157.176Z" stroke="#B2B2B2" stroke-linecap="round" stroke-linejoin="round"/>
<path d="M190.599 158.875H200.614" stroke="#B2B2B2" stroke-linecap="round" stroke-linejoin="round"/>
<path d="M190.599 170.597H200.614" stroke="#B2B2B2" stroke-linecap="round" stroke-linejoin="round"/>
<path d="M195.408 167.832C197.337 167.832 198.9 166.269 198.9 164.34C198.9 162.412 197.337 160.848 195.408 160.848C193.479 160.848 191.916 162.412 191.916 164.34C191.916 166.269 193.479 167.832 195.408 167.832Z" stroke="#B2B2B2" stroke-linecap="round" stroke-linejoin="round"/>
<path d="M212.379 157.176H201.896V172.152H212.379V157.176Z" stroke="#B2B2B2" stroke-linecap="round" stroke-linejoin="round"/>
<path d="M202.299 158.875H212.314" stroke="#B2B2B2" stroke-linecap="round" stroke-linejoin="round"/>
<path d="M202.299 170.597H212.314" stroke="#B2B2B2" stroke-linecap="round" stroke-linejoin="round"/>
<path d="M207.108 167.832C209.037 167.832 210.6 166.269 210.6 164.34C210.6 162.412 209.037 160.848 207.108 160.848C205.18 160.848 203.616 162.412 203.616 164.34C203.616 166.269 205.18 167.832 207.108 167.832Z" stroke="#B2B2B2" stroke-linecap="round" stroke-linejoin="round"/>
<path d="M230.53 172.383H220.047V187.359H230.53V172.383Z" stroke="#B2B2B2" stroke-linecap="round" stroke-linejoin="round"/>
<path d="M220.45 174.082H230.465" stroke="#B2B2B2" stroke-linecap="round" stroke-linejoin="round"/>
<path d="M220.45 185.803H230.465" stroke="#B2B2B2" stroke-linecap="round" stroke-linejoin="round"/>
<path d="M225.26 183.038C227.188 183.038 228.752 181.475 228.752 179.546C228.752 177.618 227.188 176.054 225.26 176.054C223.331 176.054 221.768 177.618 221.768 179.546C221.768 181.475 223.331 183.038 225.26 183.038Z" stroke="#B2B2B2" stroke-linecap="round" stroke-linejoin="round"/>
<path d="M242.23 172.383H231.747V187.359H242.23V172.383Z" stroke="#B2B2B2" stroke-linecap="round" stroke-linejoin="round"/>
<path d="M232.15 174.082H242.166" stroke="#B2B2B2" stroke-linecap="round" stroke-linejoin="round"/>
<path d="M232.15 185.803H242.166" stroke="#B2B2B2" stroke-linecap="round" stroke-linejoin="round"/>
<path d="M236.96 183.038C238.888 183.038 240.452 181.475 240.452 179.546C240.452 177.618 238.888 176.054 236.96 176.054C235.031 176.054 233.468 177.618 233.468 179.546C233.468 181.475 235.031 183.038 236.96 183.038Z" stroke="#B2B2B2" stroke-linecap="round" stroke-linejoin="round"/>
<path d="M253.93 172.383H243.447V187.359H253.93V172.383Z" stroke="#B2B2B2" stroke-linecap="round" stroke-linejoin="round"/>
<path d="M243.85 174.082H253.865" stroke="#B2B2B2" stroke-linecap="round" stroke-linejoin="round"/>
<path d="M243.85 185.803H253.865" stroke="#B2B2B2" stroke-linecap="round" stroke-linejoin="round"/>
<path d="M248.66 183.038C250.589 183.038 252.152 181.475 252.152 179.546C252.152 177.618 250.589 176.054 248.66 176.054C246.731 176.054 245.168 177.618 245.168 179.546C245.168 181.475 246.731 183.038 248.66 183.038Z" stroke="#B2B2B2" stroke-linecap="round" stroke-linejoin="round"/>
<path d="M265.63 172.383H255.146V187.359H265.63V172.383Z" stroke="#B2B2B2" stroke-linecap="round" stroke-linejoin="round"/>
<path d="M255.55 174.082H265.565" stroke="#B2B2B2" stroke-linecap="round" stroke-linejoin="round"/>
<path d="M255.55 185.803H265.565" stroke="#B2B2B2" stroke-linecap="round" stroke-linejoin="round"/>
<path d="M260.359 183.038C262.288 183.038 263.851 181.475 263.851 179.546C263.851 177.618 262.288 176.054 260.359 176.054C258.431 176.054 256.867 177.618 256.867 179.546C256.867 181.475 258.431 183.038 260.359 183.038Z" stroke="#B2B2B2" stroke-linecap="round" stroke-linejoin="round"/>
<path d="M223.899 157.176H213.416V172.152H223.899V157.176Z" stroke="#B2B2B2" stroke-linecap="round" stroke-linejoin="round"/>
<path d="M213.818 158.875H223.826" stroke="#B2B2B2" stroke-linecap="round" stroke-linejoin="round"/>
<path d="M213.818 170.597H223.826" stroke="#B2B2B2" stroke-linecap="round" stroke-linejoin="round"/>
<path d="M218.629 167.832C220.557 167.832 222.121 166.269 222.121 164.34C222.121 162.412 220.557 160.848 218.629 160.848C216.7 160.848 215.137 162.412 215.137 164.34C215.137 166.269 216.7 167.832 218.629 167.832Z" stroke="#B2B2B2" stroke-linecap="round" stroke-linejoin="round"/>
<path d="M235.598 157.176H225.115V172.152H235.598V157.176Z" stroke="#B2B2B2" stroke-linecap="round" stroke-linejoin="round"/>
<path d="M225.519 158.875H235.527" stroke="#B2B2B2" stroke-linecap="round" stroke-linejoin="round"/>
<path d="M225.519 170.597H235.527" stroke="#B2B2B2" stroke-linecap="round" stroke-linejoin="round"/>
<path d="M230.328 167.832C232.257 167.832 233.82 166.269 233.82 164.34C233.82 162.412 232.257 160.848 230.328 160.848C228.399 160.848 226.836 162.412 226.836 164.34C226.836 166.269 228.399 167.832 230.328 167.832Z" stroke="#B2B2B2" stroke-linecap="round" stroke-linejoin="round"/>
<path d="M247.299 157.176H236.815V172.152H247.299V157.176Z" stroke="#B2B2B2" stroke-linecap="round" stroke-linejoin="round"/>
<path d="M237.219 158.875H247.227" stroke="#B2B2B2" stroke-linecap="round" stroke-linejoin="round"/>
<path d="M237.219 170.597H247.227" stroke="#B2B2B2" stroke-linecap="round" stroke-linejoin="round"/>
<path d="M242.028 167.832C243.957 167.832 245.52 166.269 245.52 164.34C245.52 162.412 243.957 160.848 242.028 160.848C240.1 160.848 238.536 162.412 238.536 164.34C238.536 166.269 240.1 167.832 242.028 167.832Z" stroke="#B2B2B2" stroke-linecap="round" stroke-linejoin="round"/>
<path d="M258.999 157.176H248.516V172.152H258.999V157.176Z" stroke="#B2B2B2" stroke-linecap="round" stroke-linejoin="round"/>
<path d="M248.919 158.875H258.927" stroke="#B2B2B2" stroke-linecap="round" stroke-linejoin="round"/>
<path d="M248.919 170.597H258.927" stroke="#B2B2B2" stroke-linecap="round" stroke-linejoin="round"/>
<path d="M253.728 167.832C255.657 167.832 257.22 166.269 257.22 164.34C257.22 162.412 255.657 160.848 253.728 160.848C251.8 160.848 250.236 162.412 250.236 164.34C250.236 166.269 251.8 167.832 253.728 167.832Z" stroke="#B2B2B2" stroke-linecap="round" stroke-linejoin="round"/>
<path d="M69.3146 226.166H58.6154L57.5498 216.346H70.3802L69.3146 226.166Z" stroke="#B2B2B2" stroke-linecap="round" stroke-linejoin="round"/>
<path d="M71.0783 214.942H56.6855V216.338H71.0783V214.942Z" stroke="#B2B2B2" stroke-linecap="round" stroke-linejoin="round"/>
<path d="M85.3927 226.166H74.7007L73.6279 216.346H86.4583L85.3927 226.166Z" stroke="#B2B2B2" stroke-linecap="round" stroke-linejoin="round"/>
<path d="M87.1633 214.942H72.7705V216.338H87.1633V214.942Z" stroke="#B2B2B2" stroke-linecap="round" stroke-linejoin="round"/>
<path d="M101.47 226.166H90.7779L89.7051 216.346H102.543L101.47 226.166Z" stroke="#B2B2B2" stroke-linecap="round" stroke-linejoin="round"/>
<path d="M103.241 214.942H88.8486V216.338H103.241V214.942Z" stroke="#B2B2B2" stroke-linecap="round" stroke-linejoin="round"/>
<path d="M117.548 226.166H106.856L105.79 216.346H118.62L117.548 226.166Z" stroke="#B2B2B2" stroke-linecap="round" stroke-linejoin="round"/>
<path d="M119.319 214.942H104.926V216.338H119.319V214.942Z" stroke="#B2B2B2" stroke-linecap="round" stroke-linejoin="round"/>
<path d="M133.632 226.166H122.94L121.867 216.346H134.698L133.632 226.166Z" stroke="#B2B2B2" stroke-linecap="round" stroke-linejoin="round"/>
<path d="M135.404 214.942H121.011V216.338H135.404V214.942Z" stroke="#B2B2B2" stroke-linecap="round" stroke-linejoin="round"/>
<path d="M149.71 226.166H139.018L137.945 216.346H150.783L149.71 226.166Z" stroke="#B2B2B2" stroke-linecap="round" stroke-linejoin="round"/>
<path d="M151.482 214.942H137.089V216.338H151.482V214.942Z" stroke="#B2B2B2" stroke-linecap="round" stroke-linejoin="round"/>
<path d="M165.788 226.166H155.096L154.03 216.346H166.861L165.788 226.166Z" stroke="#B2B2B2" stroke-linecap="round" stroke-linejoin="round"/>
<path d="M167.559 214.942H153.166V216.338H167.559V214.942Z" stroke="#B2B2B2" stroke-linecap="round" stroke-linejoin="round"/>
<path d="M181.872 226.166H171.18L170.107 216.346H182.938L181.872 226.166Z" stroke="#B2B2B2" stroke-linecap="round" stroke-linejoin="round"/>
<path d="M183.644 214.942H169.251V216.338H183.644V214.942Z" stroke="#B2B2B2" stroke-linecap="round" stroke-linejoin="round"/>
<path d="M197.95 226.166H187.258L186.186 216.346H199.023L197.95 226.166Z" stroke="#B2B2B2" stroke-linecap="round" stroke-linejoin="round"/>
<path d="M199.721 214.942H185.328V216.338H199.721V214.942Z" stroke="#B2B2B2" stroke-linecap="round" stroke-linejoin="round"/>
<path d="M214.027 226.166H203.335L202.27 216.346H215.1L214.027 226.166Z" stroke="#B2B2B2" stroke-linecap="round" stroke-linejoin="round"/>
<path d="M215.799 214.942H201.406V216.338H215.799V214.942Z" stroke="#B2B2B2" stroke-linecap="round" stroke-linejoin="round"/>
<path d="M230.112 226.166H219.42L218.348 216.346H231.178L230.112 226.166Z" stroke="#B2B2B2" stroke-linecap="round" stroke-linejoin="round"/>
<path d="M231.884 214.942H217.491V216.338H231.884V214.942Z" stroke="#B2B2B2" stroke-linecap="round" stroke-linejoin="round"/>
<path d="M246.19 226.166H235.498L234.425 216.346H247.262L246.19 226.166Z" stroke="#B2B2B2" stroke-linecap="round" stroke-linejoin="round"/>
<path d="M247.961 214.942H233.568V216.338H247.961V214.942Z" stroke="#B2B2B2" stroke-linecap="round" stroke-linejoin="round"/>
<path d="M262.267 226.166H251.575L250.51 216.346H263.34L262.267 226.166Z" stroke="#B2B2B2" stroke-linecap="round" stroke-linejoin="round"/>
<path d="M264.039 214.942H249.646V216.338H264.039V214.942Z" stroke="#B2B2B2" stroke-linecap="round" stroke-linejoin="round"/>
<path d="M278.353 226.166H267.661L266.588 216.346H279.418L278.353 226.166Z" stroke="#B2B2B2" stroke-linecap="round" stroke-linejoin="round"/>
<path d="M280.123 214.942H265.73V216.338H280.123V214.942Z" stroke="#B2B2B2" stroke-linecap="round" stroke-linejoin="round"/>
<path d="M294.43 226.166H283.738L282.665 216.346H295.503L294.43 226.166Z" stroke="#B2B2B2" stroke-linecap="round" stroke-linejoin="round"/>
<path d="M296.201 214.942H281.809V216.338H296.201V214.942Z" stroke="#B2B2B2" stroke-linecap="round" stroke-linejoin="round"/>
<path d="M77.2205 214.56H66.5285L65.4629 204.747H78.2933L77.2205 214.56Z" stroke="#B2B2B2" stroke-linecap="round" stroke-linejoin="round"/>
<path d="M78.9914 203.343H64.5986V204.739H78.9914V203.343Z" stroke="#B2B2B2" stroke-linecap="round" stroke-linejoin="round"/>
<path d="M93.3048 214.56H82.6056L81.54 204.747H94.3704L93.3048 214.56Z" stroke="#B2B2B2" stroke-linecap="round" stroke-linejoin="round"/>
<path d="M95.0764 203.343H80.6836V204.739H95.0764V203.343Z" stroke="#B2B2B2" stroke-linecap="round" stroke-linejoin="round"/>
<path d="M109.383 214.56H98.691L97.6182 204.747H110.456L109.383 214.56Z" stroke="#B2B2B2" stroke-linecap="round" stroke-linejoin="round"/>
<path d="M111.154 203.343H96.7607V204.739H111.154V203.343Z" stroke="#B2B2B2" stroke-linecap="round" stroke-linejoin="round"/>
<path d="M125.46 214.56H114.768L113.695 204.747H126.533L125.46 214.56Z" stroke="#B2B2B2" stroke-linecap="round" stroke-linejoin="round"/>
<path d="M127.232 203.343H112.839V204.739H127.232V203.343Z" stroke="#B2B2B2" stroke-linecap="round" stroke-linejoin="round"/>
<path d="M141.545 214.56H130.846L129.78 204.747H142.611L141.545 214.56Z" stroke="#B2B2B2" stroke-linecap="round" stroke-linejoin="round"/>
<path d="M143.317 203.343H128.924V204.739H143.317V203.343Z" stroke="#B2B2B2" stroke-linecap="round" stroke-linejoin="round"/>
<path d="M157.623 214.56H146.931L145.858 204.747H158.696L157.623 214.56Z" stroke="#B2B2B2" stroke-linecap="round" stroke-linejoin="round"/>
<path d="M159.394 203.343H145.001V204.739H159.394V203.343Z" stroke="#B2B2B2" stroke-linecap="round" stroke-linejoin="round"/>
<path d="M173.7 214.56H163.008L161.936 204.747H174.773L173.7 214.56Z" stroke="#B2B2B2" stroke-linecap="round" stroke-linejoin="round"/>
<path d="M175.472 203.343H161.079V204.739H175.472V203.343Z" stroke="#B2B2B2" stroke-linecap="round" stroke-linejoin="round"/>
<path d="M189.785 214.56H179.086L178.021 204.747H190.851L189.785 214.56Z" stroke="#B2B2B2" stroke-linecap="round" stroke-linejoin="round"/>
<path d="M191.557 203.343H177.164V204.739H191.557V203.343Z" stroke="#B2B2B2" stroke-linecap="round" stroke-linejoin="round"/>
<path d="M205.862 214.56H195.17L194.098 204.747H206.935L205.862 214.56Z" stroke="#B2B2B2" stroke-linecap="round" stroke-linejoin="round"/>
<path d="M207.634 203.343H193.241V204.739H207.634V203.343Z" stroke="#B2B2B2" stroke-linecap="round" stroke-linejoin="round"/>
<path d="M221.94 214.56H211.248L210.183 204.747H223.013L221.94 214.56Z" stroke="#B2B2B2" stroke-linecap="round" stroke-linejoin="round"/>
<path d="M223.711 203.343H209.318V204.739H223.711V203.343Z" stroke="#B2B2B2" stroke-linecap="round" stroke-linejoin="round"/>
<path d="M238.026 214.56H227.326L226.261 204.747H239.091L238.026 214.56Z" stroke="#B2B2B2" stroke-linecap="round" stroke-linejoin="round"/>
<path d="M239.796 203.343H225.403V204.739H239.796V203.343Z" stroke="#B2B2B2" stroke-linecap="round" stroke-linejoin="round"/>
<path d="M254.103 214.56H243.411L242.338 204.747H255.176L254.103 214.56Z" stroke="#B2B2B2" stroke-linecap="round" stroke-linejoin="round"/>
<path d="M255.874 203.343H241.481V204.739H255.874V203.343Z" stroke="#B2B2B2" stroke-linecap="round" stroke-linejoin="round"/>
<path d="M270.18 214.56H259.488L258.423 204.747H271.253L270.18 214.56Z" stroke="#B2B2B2" stroke-linecap="round" stroke-linejoin="round"/>
<path d="M271.951 203.343H257.559V204.739H271.951V203.343Z" stroke="#B2B2B2" stroke-linecap="round" stroke-linejoin="round"/>
<path d="M286.265 214.56H275.566L274.5 204.747H287.33L286.265 214.56Z" stroke="#B2B2B2" stroke-linecap="round" stroke-linejoin="round"/>
<path d="M288.036 203.343H273.644V204.739H288.036V203.343Z" stroke="#B2B2B2" stroke-linecap="round" stroke-linejoin="round"/>
<path d="M66.0895 253.181H71.5471C72.0493 253.181 72.531 253.38 72.8861 253.736C73.2412 254.091 73.4407 254.572 73.4407 255.074V265.154H64.2031V255.074C64.2031 254.574 64.4016 254.093 64.7552 253.738C65.1088 253.383 65.5886 253.183 66.0895 253.181Z" stroke="#B2B2B2" stroke-linecap="round" stroke-linejoin="round"/>
<path d="M72.0223 251.986H65.6143V253.181H72.0223V251.986Z" stroke="#B2B2B2" stroke-linecap="round" stroke-linejoin="round"/>
<path d="M73.0584 250.574H64.584V251.986H73.0584V250.574Z" stroke="#B2B2B2" stroke-linecap="round" stroke-linejoin="round"/>
<path d="M72.5112 255.247H65.124V263.174H72.5112V255.247Z" stroke="#B2B2B2" stroke-linecap="round" stroke-linejoin="round"/>
<path d="M76.6589 253.181H82.0805C82.5827 253.181 83.0643 253.38 83.4194 253.736C83.7746 254.091 83.9741 254.572 83.9741 255.074V265.154H74.7725V255.074C74.7725 254.574 74.971 254.093 75.3245 253.738C75.6781 253.383 76.1579 253.183 76.6589 253.181Z" stroke="#B2B2B2" stroke-linecap="round" stroke-linejoin="round"/>
<path d="M82.5916 251.986H76.1836V253.181H82.5916V251.986Z" stroke="#B2B2B2" stroke-linecap="round" stroke-linejoin="round"/>
<path d="M83.6287 250.574H75.1543V251.986H83.6287V250.574Z" stroke="#B2B2B2" stroke-linecap="round" stroke-linejoin="round"/>
<path d="M83.0815 255.247H75.6943V263.174H83.0815V255.247Z" stroke="#B2B2B2" stroke-linecap="round" stroke-linejoin="round"/>
<path d="M87.2282 253.181H92.6858C93.188 253.181 93.6697 253.38 94.0248 253.736C94.3799 254.091 94.5794 254.572 94.5794 255.074V265.154H85.3418V255.074C85.3418 254.574 85.5403 254.093 85.8939 253.738C86.2474 253.383 86.7272 253.183 87.2282 253.181Z" stroke="#B2B2B2" stroke-linecap="round" stroke-linejoin="round"/>
<path d="M93.1609 251.986H86.7529V253.181H93.1609V251.986Z" stroke="#B2B2B2" stroke-linecap="round" stroke-linejoin="round"/>
<path d="M94.198 250.574H85.7236V251.986H94.198V250.574Z" stroke="#B2B2B2" stroke-linecap="round" stroke-linejoin="round"/>
<path d="M93.6509 255.247H86.2637V263.174H93.6509V255.247Z" stroke="#B2B2B2" stroke-linecap="round" stroke-linejoin="round"/>
<path d="M97.7985 253.181H103.256C103.758 253.181 104.24 253.38 104.595 253.736C104.95 254.091 105.15 254.572 105.15 255.074V265.154H95.9121V255.074C95.9121 254.574 96.1106 254.093 96.4642 253.738C96.8177 253.383 97.2975 253.183 97.7985 253.181Z" stroke="#B2B2B2" stroke-linecap="round" stroke-linejoin="round"/>
<path d="M103.731 251.986H97.3232V253.181H103.731V251.986Z" stroke="#B2B2B2" stroke-linecap="round" stroke-linejoin="round"/>
<path d="M104.761 250.574H96.2861V251.986H104.761V250.574Z" stroke="#B2B2B2" stroke-linecap="round" stroke-linejoin="round"/>
<path d="M104.22 255.247H96.833V263.174H104.22V255.247Z" stroke="#B2B2B2" stroke-linecap="round" stroke-linejoin="round"/>
<path d="M108.368 253.181H113.825C114.328 253.181 114.809 253.38 115.164 253.736C115.52 254.091 115.719 254.572 115.719 255.074V265.154H106.481V255.074C106.481 254.574 106.68 254.093 107.034 253.738C107.387 253.383 107.867 253.183 108.368 253.181Z" stroke="#B2B2B2" stroke-linecap="round" stroke-linejoin="round"/>
<path d="M114.301 251.986H107.893V253.181H114.301V251.986Z" stroke="#B2B2B2" stroke-linecap="round" stroke-linejoin="round"/>
<path d="M115.33 250.574H106.855V251.986H115.33V250.574Z" stroke="#B2B2B2" stroke-linecap="round" stroke-linejoin="round"/>
<path d="M114.79 255.247H107.402V263.174H114.79V255.247Z" stroke="#B2B2B2" stroke-linecap="round" stroke-linejoin="round"/>
<path d="M118.938 253.181H124.395C124.897 253.181 125.379 253.38 125.734 253.736C126.089 254.091 126.289 254.572 126.289 255.074V265.154H117.044V255.074C117.044 254.572 117.243 254.091 117.599 253.736C117.954 253.38 118.435 253.181 118.938 253.181Z" stroke="#B2B2B2" stroke-linecap="round" stroke-linejoin="round"/>
<path d="M124.87 251.986H118.462V253.181H124.87V251.986Z" stroke="#B2B2B2" stroke-linecap="round" stroke-linejoin="round"/>
<path d="M125.899 250.574H117.425V251.986H125.899V250.574Z" stroke="#B2B2B2" stroke-linecap="round" stroke-linejoin="round"/>
<path d="M125.36 255.247H117.973V263.174H125.36V255.247Z" stroke="#B2B2B2" stroke-linecap="round" stroke-linejoin="round"/>
<path d="M129.507 253.181H134.964C135.467 253.181 135.948 253.38 136.303 253.736C136.659 254.091 136.858 254.572 136.858 255.074V265.154H127.613V255.074C127.613 254.572 127.813 254.091 128.168 253.736C128.523 253.38 129.005 253.181 129.507 253.181Z" stroke="#B2B2B2" stroke-linecap="round" stroke-linejoin="round"/>
<path d="M135.439 251.986H129.031V253.181H135.439V251.986Z" stroke="#B2B2B2" stroke-linecap="round" stroke-linejoin="round"/>
<path d="M136.47 250.574H127.995V251.986H136.47V250.574Z" stroke="#B2B2B2" stroke-linecap="round" stroke-linejoin="round"/>
<path d="M135.929 255.247H128.542V263.174H135.929V255.247Z" stroke="#B2B2B2" stroke-linecap="round" stroke-linejoin="round"/>
<path d="M140.076 253.181H145.534C146.036 253.181 146.518 253.38 146.873 253.736C147.228 254.091 147.427 254.572 147.427 255.074V265.154H138.183V255.074C138.183 254.572 138.382 254.091 138.737 253.736C139.092 253.38 139.574 253.181 140.076 253.181Z" stroke="#B2B2B2" stroke-linecap="round" stroke-linejoin="round"/>
<path d="M146.002 251.986H139.594V253.181H146.002V251.986Z" stroke="#B2B2B2" stroke-linecap="round" stroke-linejoin="round"/>
<path d="M147.039 250.574H138.564V251.986H147.039V250.574Z" stroke="#B2B2B2" stroke-linecap="round" stroke-linejoin="round"/>
<path d="M146.499 255.247H139.111V263.174H146.499V255.247Z" stroke="#B2B2B2" stroke-linecap="round" stroke-linejoin="round"/>
<path d="M150.646 253.181H156.103C156.605 253.181 157.087 253.38 157.442 253.736C157.797 254.091 157.997 254.572 157.997 255.074V265.154H148.752V255.074C148.752 254.572 148.951 254.091 149.307 253.736C149.662 253.38 150.143 253.181 150.646 253.181Z" stroke="#B2B2B2" stroke-linecap="round" stroke-linejoin="round"/>
<path d="M156.572 251.986H150.164V253.181H156.572V251.986Z" stroke="#B2B2B2" stroke-linecap="round" stroke-linejoin="round"/>
<path d="M157.608 250.574H149.134V251.986H157.608V250.574Z" stroke="#B2B2B2" stroke-linecap="round" stroke-linejoin="round"/>
<path d="M157.069 255.247H149.682V263.174H157.069V255.247Z" stroke="#B2B2B2" stroke-linecap="round" stroke-linejoin="round"/>
<path d="M161.216 253.181H166.673C167.176 253.181 167.657 253.38 168.012 253.736C168.368 254.091 168.567 254.572 168.567 255.074V265.154H159.322V255.074C159.322 254.572 159.522 254.091 159.877 253.736C160.232 253.38 160.714 253.181 161.216 253.181Z" stroke="#B2B2B2" stroke-linecap="round" stroke-linejoin="round"/>
<path d="M167.141 251.986H160.733V253.181H167.141V251.986Z" stroke="#B2B2B2" stroke-linecap="round" stroke-linejoin="round"/>
<path d="M168.178 250.574H159.703V251.986H168.178V250.574Z" stroke="#B2B2B2" stroke-linecap="round" stroke-linejoin="round"/>
<path d="M167.63 255.247H160.243V263.174H167.63V255.247Z" stroke="#B2B2B2" stroke-linecap="round" stroke-linejoin="round"/>
<path d="M171.785 253.181H177.242C177.745 253.181 178.226 253.38 178.581 253.736C178.936 254.091 179.136 254.572 179.136 255.074V265.154H169.92V255.074C169.92 254.577 170.115 254.1 170.464 253.746C170.813 253.391 171.288 253.188 171.785 253.181Z" stroke="#B2B2B2" stroke-linecap="round" stroke-linejoin="round"/>
<path d="M177.711 251.986H171.303V253.181H177.711V251.986Z" stroke="#B2B2B2" stroke-linecap="round" stroke-linejoin="round"/>
<path d="M178.748 250.574H170.273V251.986H178.748V250.574Z" stroke="#B2B2B2" stroke-linecap="round" stroke-linejoin="round"/>
<path d="M178.201 255.247H170.813V263.174H178.201V255.247Z" stroke="#B2B2B2" stroke-linecap="round" stroke-linejoin="round"/>
<path d="M182.355 253.181H187.812C188.314 253.181 188.796 253.38 189.151 253.736C189.506 254.091 189.706 254.572 189.706 255.074V265.154H180.461V255.074C180.461 254.572 180.66 254.091 181.016 253.736C181.371 253.38 181.852 253.181 182.355 253.181Z" stroke="#B2B2B2" stroke-linecap="round" stroke-linejoin="round"/>
<path d="M188.28 251.986H181.872V253.181H188.28V251.986Z" stroke="#B2B2B2" stroke-linecap="round" stroke-linejoin="round"/>
<path d="M189.317 250.574H180.843V251.986H189.317V250.574Z" stroke="#B2B2B2" stroke-linecap="round" stroke-linejoin="round"/>
<path d="M188.77 255.247H181.383V263.174H188.77V255.247Z" stroke="#B2B2B2" stroke-linecap="round" stroke-linejoin="round"/>
<path d="M192.918 253.181H198.375C198.877 253.181 199.359 253.38 199.714 253.736C200.069 254.091 200.269 254.572 200.269 255.074V265.154H191.031V255.074C191.031 254.574 191.23 254.093 191.583 253.738C191.937 253.383 192.417 253.183 192.918 253.181Z" stroke="#B2B2B2" stroke-linecap="round" stroke-linejoin="round"/>
<path d="M198.85 251.986H192.442V253.181H198.85V251.986Z" stroke="#B2B2B2" stroke-linecap="round" stroke-linejoin="round"/>
<path d="M199.887 250.574H191.412V251.986H199.887V250.574Z" stroke="#B2B2B2" stroke-linecap="round" stroke-linejoin="round"/>
<path d="M199.339 255.247H191.952V263.174H199.339V255.247Z" stroke="#B2B2B2" stroke-linecap="round" stroke-linejoin="round"/>
<path d="M203.487 253.181H208.945C209.447 253.181 209.928 253.38 210.284 253.736C210.639 254.091 210.838 254.572 210.838 255.074V265.154H201.601V255.074C201.601 254.574 201.799 254.093 202.153 253.738C202.506 253.383 202.986 253.183 203.487 253.181Z" stroke="#B2B2B2" stroke-linecap="round" stroke-linejoin="round"/>
<path d="M209.42 251.986H203.012V253.181H209.42V251.986Z" stroke="#B2B2B2" stroke-linecap="round" stroke-linejoin="round"/>
<path d="M210.457 250.574H201.982V251.986H210.457V250.574Z" stroke="#B2B2B2" stroke-linecap="round" stroke-linejoin="round"/>
<path d="M209.91 255.247H202.522V263.174H209.91V255.247Z" stroke="#B2B2B2" stroke-linecap="round" stroke-linejoin="round"/>
<path d="M214.056 253.181H219.514C220.016 253.181 220.498 253.38 220.853 253.736C221.208 254.091 221.408 254.572 221.408 255.074V265.154H212.17V255.074C212.17 254.574 212.368 254.093 212.722 253.738C213.076 253.383 213.555 253.183 214.056 253.181Z" stroke="#B2B2B2" stroke-linecap="round" stroke-linejoin="round"/>
<path d="M219.989 251.986H213.581V253.181H219.989V251.986Z" stroke="#B2B2B2" stroke-linecap="round" stroke-linejoin="round"/>
<path d="M221.026 250.574H212.552V251.986H221.026V250.574Z" stroke="#B2B2B2" stroke-linecap="round" stroke-linejoin="round"/>
<path d="M220.479 255.247H213.092V263.174H220.479V255.247Z" stroke="#B2B2B2" stroke-linecap="round" stroke-linejoin="round"/>
<path d="M224.64 253.181H230.098C230.6 253.181 231.082 253.38 231.437 253.736C231.792 254.091 231.991 254.572 231.991 255.075V265.155H222.739V255.075C222.739 254.825 222.788 254.578 222.884 254.348C222.98 254.118 223.12 253.909 223.296 253.733C223.473 253.557 223.683 253.418 223.913 253.323C224.144 253.228 224.391 253.18 224.64 253.181Z" stroke="#B2B2B2" stroke-linecap="round" stroke-linejoin="round"/>
<path d="M230.558 251.986H224.15V253.181H230.558V251.986Z" stroke="#B2B2B2" stroke-linecap="round" stroke-linejoin="round"/>
<path d="M231.595 250.574H223.121V251.986H231.595V250.574Z" stroke="#B2B2B2" stroke-linecap="round" stroke-linejoin="round"/>
<path d="M231.048 255.247H223.661V263.174H231.048V255.247Z" stroke="#B2B2B2" stroke-linecap="round" stroke-linejoin="round"/>
<path d="M235.195 253.181H240.653C241.155 253.181 241.637 253.38 241.992 253.735C242.347 254.091 242.547 254.572 242.547 255.074V265.154H233.28V255.074C233.28 254.824 233.33 254.576 233.426 254.345C233.523 254.114 233.664 253.904 233.843 253.728C234.021 253.552 234.232 253.413 234.464 253.319C234.696 253.225 234.945 253.178 235.195 253.181Z" stroke="#B2B2B2" stroke-linecap="round" stroke-linejoin="round"/>
<path d="M241.129 251.986H234.721V253.181H241.129V251.986Z" stroke="#B2B2B2" stroke-linecap="round" stroke-linejoin="round"/>
<path d="M242.158 250.574H233.684V251.986H242.158V250.574Z" stroke="#B2B2B2" stroke-linecap="round" stroke-linejoin="round"/>
<path d="M241.618 255.247H234.23V263.174H241.618V255.247Z" stroke="#B2B2B2" stroke-linecap="round" stroke-linejoin="round"/>
<path d="M245.765 253.181H251.223C251.725 253.181 252.207 253.38 252.562 253.736C252.917 254.091 253.116 254.572 253.116 255.074V265.154H243.879V255.074C243.879 254.574 244.077 254.093 244.431 253.738C244.785 253.383 245.264 253.183 245.765 253.181Z" stroke="#B2B2B2" stroke-linecap="round" stroke-linejoin="round"/>
<path d="M251.698 251.986H245.29V253.181H251.698V251.986Z" stroke="#B2B2B2" stroke-linecap="round" stroke-linejoin="round"/>
<path d="M252.727 250.574H244.253V251.986H252.727V250.574Z" stroke="#B2B2B2" stroke-linecap="round" stroke-linejoin="round"/>
<path d="M252.188 255.247H244.801V263.174H252.188V255.247Z" stroke="#B2B2B2" stroke-linecap="round" stroke-linejoin="round"/>
<path d="M70.7262 238.406H76.1838C76.6861 238.406 77.1677 238.606 77.5228 238.961C77.8779 239.316 78.0774 239.798 78.0774 240.3V250.38H68.8398V240.3C68.8398 239.799 69.0384 239.319 69.3919 238.964C69.7455 238.609 70.2253 238.408 70.7262 238.406Z" stroke="#B2B2B2" stroke-linecap="round" stroke-linejoin="round"/>
<path d="M76.659 237.211H70.251V238.406H76.659V237.211Z" stroke="#B2B2B2" stroke-linecap="round" stroke-linejoin="round"/>
<path d="M77.6883 235.8H69.2139V237.211H77.6883V235.8Z" stroke="#B2B2B2" stroke-linecap="round" stroke-linejoin="round"/>
<path d="M77.1479 240.473H69.7607V248.4H77.1479V240.473Z" stroke="#B2B2B2" stroke-linecap="round" stroke-linejoin="round"/>
<path d="M81.2956 238.406H86.7532C87.2554 238.406 87.737 238.606 88.0922 238.961C88.4473 239.316 88.6468 239.798 88.6468 240.3V250.38H79.4092V240.3C79.4092 239.799 79.6077 239.319 79.9613 238.964C80.3148 238.609 80.7946 238.408 81.2956 238.406Z" stroke="#B2B2B2" stroke-linecap="round" stroke-linejoin="round"/>
<path d="M87.2283 237.211H80.8203V238.406H87.2283V237.211Z" stroke="#B2B2B2" stroke-linecap="round" stroke-linejoin="round"/>
<path d="M88.2576 235.8H79.7832V237.211H88.2576V235.8Z" stroke="#B2B2B2" stroke-linecap="round" stroke-linejoin="round"/>
<path d="M87.7183 240.473H80.3311V248.4H87.7183V240.473Z" stroke="#B2B2B2" stroke-linecap="round" stroke-linejoin="round"/>
<path d="M91.8648 238.406H97.3224C97.8246 238.406 98.3063 238.606 98.6614 238.961C99.0165 239.316 99.216 239.798 99.216 240.3V250.38H90V240.3C89.9999 239.803 90.1955 239.325 90.5444 238.971C90.8933 238.617 91.3676 238.414 91.8648 238.406Z" stroke="#B2B2B2" stroke-linecap="round" stroke-linejoin="round"/>
<path d="M97.7976 237.211H91.3896V238.406H97.7976V237.211Z" stroke="#B2B2B2" stroke-linecap="round" stroke-linejoin="round"/>
<path d="M98.8279 235.8H90.3535V237.211H98.8279V235.8Z" stroke="#B2B2B2" stroke-linecap="round" stroke-linejoin="round"/>
<path d="M98.2876 240.473H90.9004V248.4H98.2876V240.473Z" stroke="#B2B2B2" stroke-linecap="round" stroke-linejoin="round"/>
<path d="M102.435 238.406H107.892C108.394 238.406 108.876 238.606 109.231 238.961C109.586 239.316 109.786 239.798 109.786 240.3V250.38H100.541V240.3C100.541 240.051 100.59 239.805 100.685 239.575C100.78 239.346 100.92 239.137 101.096 238.961C101.271 238.785 101.48 238.646 101.71 238.551C101.94 238.455 102.186 238.406 102.435 238.406Z" stroke="#B2B2B2" stroke-linecap="round" stroke-linejoin="round"/>
<path d="M108.368 237.211H101.96V238.406H108.368V237.211Z" stroke="#B2B2B2" stroke-linecap="round" stroke-linejoin="round"/>
<path d="M109.397 235.8H100.923V237.211H109.397V235.8Z" stroke="#B2B2B2" stroke-linecap="round" stroke-linejoin="round"/>
<path d="M108.857 240.473H101.47V248.4H108.857V240.473Z" stroke="#B2B2B2" stroke-linecap="round" stroke-linejoin="round"/>
<path d="M113.004 238.406H118.462C118.964 238.406 119.445 238.606 119.801 238.961C120.156 239.316 120.355 239.798 120.355 240.3V250.38H111.11V240.3C111.11 239.798 111.31 239.316 111.665 238.961C112.02 238.606 112.502 238.406 113.004 238.406Z" stroke="#B2B2B2" stroke-linecap="round" stroke-linejoin="round"/>
<path d="M118.93 237.211H112.522V238.406H118.93V237.211Z" stroke="#B2B2B2" stroke-linecap="round" stroke-linejoin="round"/>
<path d="M119.967 235.8H111.492V237.211H119.967V235.8Z" stroke="#B2B2B2" stroke-linecap="round" stroke-linejoin="round"/>
<path d="M119.427 240.473H112.04V248.4H119.427V240.473Z" stroke="#B2B2B2" stroke-linecap="round" stroke-linejoin="round"/>
<path d="M123.574 238.406H129.032C129.534 238.406 130.016 238.606 130.371 238.961C130.726 239.316 130.925 239.798 130.925 240.3V250.38H121.681V240.3C121.681 239.798 121.88 239.316 122.235 238.961C122.59 238.606 123.072 238.406 123.574 238.406Z" stroke="#B2B2B2" stroke-linecap="round" stroke-linejoin="round"/>
<path d="M129.5 237.211H123.092V238.406H129.5V237.211Z" stroke="#B2B2B2" stroke-linecap="round" stroke-linejoin="round"/>
<path d="M130.537 235.8H122.062V237.211H130.537V235.8Z" stroke="#B2B2B2" stroke-linecap="round" stroke-linejoin="round"/>
<path d="M129.989 240.473H122.602V248.4H129.989V240.473Z" stroke="#B2B2B2" stroke-linecap="round" stroke-linejoin="round"/>
<path d="M134.144 238.406H139.601C140.103 238.406 140.585 238.606 140.94 238.961C141.295 239.316 141.495 239.798 141.495 240.3V250.38H132.25V240.3C132.25 239.798 132.45 239.316 132.805 238.961C133.16 238.606 133.641 238.406 134.144 238.406Z" stroke="#B2B2B2" stroke-linecap="round" stroke-linejoin="round"/>
<path d="M140.069 237.211H133.661V238.406H140.069V237.211Z" stroke="#B2B2B2" stroke-linecap="round" stroke-linejoin="round"/>
<path d="M141.106 235.8H132.632V237.211H141.106V235.8Z" stroke="#B2B2B2" stroke-linecap="round" stroke-linejoin="round"/>
<path d="M140.559 240.473H133.172V248.4H140.559V240.473Z" stroke="#B2B2B2" stroke-linecap="round" stroke-linejoin="round"/>
<path d="M144.72 238.407H150.178C150.68 238.407 151.162 238.606 151.517 238.961C151.872 239.316 152.071 239.798 152.071 240.3V250.38H142.819V240.3C142.819 240.051 142.869 239.804 142.964 239.574C143.06 239.344 143.2 239.135 143.376 238.959C143.553 238.783 143.763 238.643 143.993 238.549C144.224 238.454 144.471 238.406 144.72 238.407Z" stroke="#B2B2B2" stroke-linecap="round" stroke-linejoin="round"/>
<path d="M150.638 237.211H144.23V238.406H150.638V237.211Z" stroke="#B2B2B2" stroke-linecap="round" stroke-linejoin="round"/>
<path d="M151.676 235.8H143.201V237.211H151.676V235.8Z" stroke="#B2B2B2" stroke-linecap="round" stroke-linejoin="round"/>
<path d="M151.128 240.473H143.741V248.4H151.128V240.473Z" stroke="#B2B2B2" stroke-linecap="round" stroke-linejoin="round"/>
<path d="M155.283 238.406H160.74C161.243 238.406 161.724 238.606 162.079 238.961C162.434 239.316 162.634 239.798 162.634 240.3V250.38H153.36V240.3C153.36 240.049 153.41 239.8 153.507 239.569C153.604 239.337 153.746 239.127 153.925 238.951C154.104 238.775 154.316 238.636 154.549 238.542C154.782 238.449 155.032 238.403 155.283 238.406Z" stroke="#B2B2B2" stroke-linecap="round" stroke-linejoin="round"/>
<path d="M161.209 237.211H154.801V238.406H161.209V237.211Z" stroke="#B2B2B2" stroke-linecap="round" stroke-linejoin="round"/>
<path d="M162.245 235.8H153.771V237.211H162.245V235.8Z" stroke="#B2B2B2" stroke-linecap="round" stroke-linejoin="round"/>
<path d="M161.698 240.473H154.311V248.4H161.698V240.473Z" stroke="#B2B2B2" stroke-linecap="round" stroke-linejoin="round"/>
<path d="M165.845 238.406H171.303C171.805 238.406 172.287 238.606 172.642 238.961C172.997 239.316 173.197 239.798 173.197 240.3V250.38H163.959V240.3C163.959 239.799 164.157 239.319 164.511 238.964C164.865 238.609 165.344 238.408 165.845 238.406Z" stroke="#B2B2B2" stroke-linecap="round" stroke-linejoin="round"/>
<path d="M171.778 237.211H165.37V238.406H171.778V237.211Z" stroke="#B2B2B2" stroke-linecap="round" stroke-linejoin="round"/>
<path d="M172.815 235.8H164.341V237.211H172.815V235.8Z" stroke="#B2B2B2" stroke-linecap="round" stroke-linejoin="round"/>
<path d="M172.268 240.473H164.881V248.4H172.268V240.473Z" stroke="#B2B2B2" stroke-linecap="round" stroke-linejoin="round"/>
<path d="M176.4 238.406H181.858C182.36 238.406 182.842 238.606 183.197 238.961C183.552 239.316 183.752 239.798 183.752 240.3V250.38H174.528V240.3C174.528 239.802 174.725 239.323 175.075 238.969C175.426 238.614 175.902 238.412 176.4 238.406Z" stroke="#B2B2B2" stroke-linecap="round" stroke-linejoin="round"/>
<path d="M182.347 237.211H175.939V238.406H182.347V237.211Z" stroke="#B2B2B2" stroke-linecap="round" stroke-linejoin="round"/>
<path d="M183.385 235.8H174.91V237.211H183.385V235.8Z" stroke="#B2B2B2" stroke-linecap="round" stroke-linejoin="round"/>
<path d="M182.837 240.473H175.45V248.4H182.837V240.473Z" stroke="#B2B2B2" stroke-linecap="round" stroke-linejoin="round"/>
<path d="M186.984 238.406H192.442C192.944 238.406 193.426 238.606 193.781 238.961C194.136 239.316 194.335 239.798 194.335 240.3V250.38H185.098V240.3C185.098 239.799 185.296 239.319 185.65 238.964C186.003 238.609 186.483 238.408 186.984 238.406Z" stroke="#B2B2B2" stroke-linecap="round" stroke-linejoin="round"/>
<path d="M192.917 237.211H186.509V238.406H192.917V237.211Z" stroke="#B2B2B2" stroke-linecap="round" stroke-linejoin="round"/>
<path d="M193.954 235.8H185.479V237.211H193.954V235.8Z" stroke="#B2B2B2" stroke-linecap="round" stroke-linejoin="round"/>
<path d="M193.407 240.473H186.02V248.4H193.407V240.473Z" stroke="#B2B2B2" stroke-linecap="round" stroke-linejoin="round"/>
<path d="M197.554 238.406H203.041C203.543 238.406 204.025 238.606 204.38 238.961C204.735 239.316 204.934 239.798 204.934 240.3V250.38H195.668V240.3C195.668 239.799 195.866 239.319 196.22 238.964C196.574 238.609 197.053 238.408 197.554 238.406Z" stroke="#B2B2B2" stroke-linecap="round" stroke-linejoin="round"/>
<path d="M203.487 237.211H197.079V238.406H203.487V237.211Z" stroke="#B2B2B2" stroke-linecap="round" stroke-linejoin="round"/>
<path d="M204.523 235.8H196.049V237.211H204.523V235.8Z" stroke="#B2B2B2" stroke-linecap="round" stroke-linejoin="round"/>
<path d="M203.976 240.473H196.589V248.4H203.976V240.473Z" stroke="#B2B2B2" stroke-linecap="round" stroke-linejoin="round"/>
<path d="M208.124 238.406H213.581C214.084 238.406 214.565 238.606 214.92 238.961C215.275 239.316 215.475 239.798 215.475 240.3V250.38H206.237V240.3C206.237 239.799 206.436 239.319 206.789 238.964C207.143 238.609 207.623 238.408 208.124 238.406Z" stroke="#B2B2B2" stroke-linecap="round" stroke-linejoin="round"/>
<path d="M214.056 237.211H207.648V238.406H214.056V237.211Z" stroke="#B2B2B2" stroke-linecap="round" stroke-linejoin="round"/>
<path d="M215.086 235.8H206.611V237.211H215.086V235.8Z" stroke="#B2B2B2" stroke-linecap="round" stroke-linejoin="round"/>
<path d="M214.546 240.473H207.159V248.4H214.546V240.473Z" stroke="#B2B2B2" stroke-linecap="round" stroke-linejoin="round"/>
<path d="M218.693 238.406H224.151C224.653 238.406 225.135 238.606 225.49 238.961C225.845 239.316 226.044 239.798 226.044 240.3V250.38H216.807V240.3C216.807 239.799 217.005 239.319 217.359 238.964C217.712 238.609 218.192 238.408 218.693 238.406Z" stroke="#B2B2B2" stroke-linecap="round" stroke-linejoin="round"/>
<path d="M224.626 237.211H218.218V238.406H224.626V237.211Z" stroke="#B2B2B2" stroke-linecap="round" stroke-linejoin="round"/>
<path d="M225.656 235.8H217.182V237.211H225.656V235.8Z" stroke="#B2B2B2" stroke-linecap="round" stroke-linejoin="round"/>
<path d="M225.116 240.473H217.729V248.4H225.116V240.473Z" stroke="#B2B2B2" stroke-linecap="round" stroke-linejoin="round"/>
<path d="M229.262 238.406H234.72C235.222 238.406 235.704 238.606 236.059 238.961C236.414 239.316 236.614 239.798 236.614 240.3V250.38H227.376V240.3C227.376 239.799 227.574 239.319 227.928 238.964C228.282 238.609 228.761 238.408 229.262 238.406Z" stroke="#B2B2B2" stroke-linecap="round" stroke-linejoin="round"/>
<path d="M235.196 237.211H228.788V238.406H235.196V237.211Z" stroke="#B2B2B2" stroke-linecap="round" stroke-linejoin="round"/>
<path d="M236.225 235.8H227.751V237.211H236.225V235.8Z" stroke="#B2B2B2" stroke-linecap="round" stroke-linejoin="round"/>
<path d="M235.685 240.473H228.298V248.4H235.685V240.473Z" stroke="#B2B2B2" stroke-linecap="round" stroke-linejoin="round"/>
<path d="M239.832 238.406H245.29C245.792 238.406 246.274 238.606 246.629 238.961C246.984 239.316 247.183 239.798 247.183 240.3V250.38H237.938V240.3C237.938 239.798 238.138 239.316 238.493 238.961C238.848 238.606 239.33 238.406 239.832 238.406Z" stroke="#B2B2B2" stroke-linecap="round" stroke-linejoin="round"/>
<path d="M245.765 237.211H239.357V238.406H245.765V237.211Z" stroke="#B2B2B2" stroke-linecap="round" stroke-linejoin="round"/>
<path d="M246.795 235.8H238.32V237.211H246.795V235.8Z" stroke="#B2B2B2" stroke-linecap="round" stroke-linejoin="round"/>
<path d="M246.254 240.473H238.867V248.4H246.254V240.473Z" stroke="#B2B2B2" stroke-linecap="round" stroke-linejoin="round"/>
<path d="M256.392 253.181H261.85C262.352 253.181 262.834 253.38 263.189 253.736C263.544 254.091 263.743 254.572 263.743 255.074V265.154H254.506V255.074C254.506 254.574 254.704 254.093 255.058 253.738C255.411 253.383 255.891 253.183 256.392 253.181Z" stroke="#B2B2B2" stroke-linecap="round" stroke-linejoin="round"/>
<path d="M262.325 251.986H255.917V253.181H262.325V251.986Z" stroke="#B2B2B2" stroke-linecap="round" stroke-linejoin="round"/>
<path d="M263.355 250.574H254.881V251.986H263.355V250.574Z" stroke="#B2B2B2" stroke-linecap="round" stroke-linejoin="round"/>
<path d="M262.815 255.247H255.428V263.174H262.815V255.247Z" stroke="#B2B2B2" stroke-linecap="round" stroke-linejoin="round"/>
<path d="M266.962 253.181H272.42C272.922 253.181 273.403 253.38 273.759 253.736C274.114 254.091 274.313 254.572 274.313 255.074V265.154H265.068V255.074C265.068 254.572 265.268 254.091 265.623 253.736C265.978 253.38 266.46 253.181 266.962 253.181Z" stroke="#B2B2B2" stroke-linecap="round" stroke-linejoin="round"/>
<path d="M272.894 251.986H266.486V253.181H272.894V251.986Z" stroke="#B2B2B2" stroke-linecap="round" stroke-linejoin="round"/>
<path d="M273.925 250.574H265.45V251.986H273.925V250.574Z" stroke="#B2B2B2" stroke-linecap="round" stroke-linejoin="round"/>
<path d="M273.384 255.247H265.997V263.174H273.384V255.247Z" stroke="#B2B2B2" stroke-linecap="round" stroke-linejoin="round"/>
<path d="M250.46 238.406H255.918C256.42 238.406 256.901 238.606 257.257 238.961C257.612 239.316 257.811 239.798 257.811 240.3V250.38H248.566V240.3C248.566 239.798 248.766 239.316 249.121 238.961C249.476 238.606 249.958 238.406 250.46 238.406Z" stroke="#B2B2B2" stroke-linecap="round" stroke-linejoin="round"/>
<path d="M256.392 237.211H249.984V238.406H256.392V237.211Z" stroke="#B2B2B2" stroke-linecap="round" stroke-linejoin="round"/>
<path d="M257.422 235.8H248.947V237.211H257.422V235.8Z" stroke="#B2B2B2" stroke-linecap="round" stroke-linejoin="round"/>
<path d="M256.882 240.473H249.495V248.4H256.882V240.473Z" stroke="#B2B2B2" stroke-linecap="round" stroke-linejoin="round"/>
<path d="M261.029 238.406H266.487C266.989 238.406 267.471 238.606 267.826 238.961C268.181 239.316 268.381 239.798 268.381 240.3V250.38H259.136V240.3C259.136 239.798 259.335 239.316 259.69 238.961C260.045 238.606 260.527 238.406 261.029 238.406Z" stroke="#B2B2B2" stroke-linecap="round" stroke-linejoin="round"/>
<path d="M266.955 237.211H260.547V238.406H266.955V237.211Z" stroke="#B2B2B2" stroke-linecap="round" stroke-linejoin="round"/>
<path d="M267.992 235.8H259.518V237.211H267.992V235.8Z" stroke="#B2B2B2" stroke-linecap="round" stroke-linejoin="round"/>
<path d="M267.452 240.473H260.064V248.4H267.452V240.473Z" stroke="#B2B2B2" stroke-linecap="round" stroke-linejoin="round"/>
<path d="M277.589 253.181H283.047C283.549 253.181 284.03 253.38 284.385 253.736C284.741 254.091 284.94 254.572 284.94 255.074V265.154H275.695V255.074C275.695 254.572 275.895 254.091 276.25 253.736C276.605 253.38 277.087 253.181 277.589 253.181Z" stroke="#B2B2B2" stroke-linecap="round" stroke-linejoin="round"/>
<path d="M283.522 251.986H277.114V253.181H283.522V251.986Z" stroke="#B2B2B2" stroke-linecap="round" stroke-linejoin="round"/>
<path d="M284.552 250.574H276.077V251.986H284.552V250.574Z" stroke="#B2B2B2" stroke-linecap="round" stroke-linejoin="round"/>
<path d="M284.011 255.247H276.624V263.174H284.011V255.247Z" stroke="#B2B2B2" stroke-linecap="round" stroke-linejoin="round"/>
<path d="M288.159 253.181H293.617C294.119 253.181 294.601 253.38 294.956 253.736C295.311 254.091 295.51 254.572 295.51 255.074V265.154H286.266V255.074C286.266 254.826 286.315 254.58 286.41 254.35C286.505 254.12 286.644 253.911 286.82 253.736C286.996 253.56 287.205 253.42 287.435 253.325C287.664 253.23 287.911 253.181 288.159 253.181Z" stroke="#B2B2B2" stroke-linecap="round" stroke-linejoin="round"/>
<path d="M294.085 251.986H287.677V253.181H294.085V251.986Z" stroke="#B2B2B2" stroke-linecap="round" stroke-linejoin="round"/>
<path d="M295.121 250.574H286.646V251.986H295.121V250.574Z" stroke="#B2B2B2" stroke-linecap="round" stroke-linejoin="round"/>
<path d="M294.582 255.247H287.194V263.174H294.582V255.247Z" stroke="#B2B2B2" stroke-linecap="round" stroke-linejoin="round"/>
<path d="M271.656 238.406H277.114C277.616 238.406 278.098 238.606 278.453 238.961C278.808 239.316 279.007 239.798 279.007 240.3V250.38H269.763V240.3C269.763 239.798 269.962 239.316 270.317 238.961C270.672 238.606 271.154 238.406 271.656 238.406Z" stroke="#B2B2B2" stroke-linecap="round" stroke-linejoin="round"/>
<path d="M277.582 237.211H271.174V238.406H277.582V237.211Z" stroke="#B2B2B2" stroke-linecap="round" stroke-linejoin="round"/>
<path d="M278.619 235.8H270.145V237.211H278.619V235.8Z" stroke="#B2B2B2" stroke-linecap="round" stroke-linejoin="round"/>
<path d="M278.072 240.473H270.685V248.4H278.072V240.473Z" stroke="#B2B2B2" stroke-linecap="round" stroke-linejoin="round"/>
<path d="M282.24 238.407H287.698C288.2 238.407 288.681 238.606 289.037 238.961C289.392 239.316 289.591 239.798 289.591 240.3V250.38H280.332V240.3C280.332 240.05 280.381 239.803 280.478 239.572C280.574 239.341 280.714 239.132 280.892 238.956C281.069 238.78 281.28 238.641 281.511 238.547C281.742 238.452 281.99 238.405 282.24 238.407Z" stroke="#B2B2B2" stroke-linecap="round" stroke-linejoin="round"/>
<path d="M288.151 237.211H281.743V238.406H288.151V237.211Z" stroke="#B2B2B2" stroke-linecap="round" stroke-linejoin="round"/>
<path d="M289.188 235.8H280.714V237.211H289.188V235.8Z" stroke="#B2B2B2" stroke-linecap="round" stroke-linejoin="round"/>
<path d="M288.641 240.473H281.254V248.4H288.641V240.473Z" stroke="#B2B2B2" stroke-linecap="round" stroke-linejoin="round"/>
<path d="M244.613 302.63C244.613 305.424 213.559 307.67 175.248 307.67C136.937 307.67 105.891 305.41 105.891 302.63C105.891 299.851 136.944 297.59 175.248 297.59C213.552 297.59 244.613 299.837 244.613 302.63Z" fill="#FDC9FF"/>
<path opacity="0.4" d="M244.613 302.63C244.613 305.424 213.559 307.67 175.248 307.67C136.937 307.67 105.891 305.41 105.891 302.63C105.891 299.851 136.944 297.59 175.248 297.59C213.552 297.59 244.613 299.837 244.613 302.63Z" fill="white"/>
<path d="M186.955 93.6C186.955 93.6 189.389 97.1064 189.54 100.152C189.691 103.198 189.691 105.79 190.152 106.855C190.613 107.921 192.132 108.684 191.981 109.598C191.829 110.513 190.605 111.427 190.605 111.427C190.605 111.427 189.849 115.69 188.445 117.677C187.041 119.664 185.249 118.894 183.722 118.742C182.788 118.642 181.868 118.436 180.979 118.13C179.658 119.746 178.815 121.698 178.545 123.768C178.332 125.446 178.383 127.146 178.697 128.808L168.033 125.611C168.033 125.611 173.073 121.5 172.447 116.618C172.059 113.637 171.019 110.779 169.401 108.245C169.401 108.245 163.764 101.995 165.902 98.3376C168.041 94.68 170.165 91.4832 172.605 90.2664C175.046 89.0496 186.955 93.6 186.955 93.6Z" fill="white" stroke="#263238" stroke-linecap="round" stroke-linejoin="round"/>
<path d="M184.817 110.074C184.817 110.074 186.977 112.234 188.324 112.507" stroke="#263238" stroke-width="0.75" stroke-linecap="round" stroke-linejoin="round"/>
<path d="M185.731 109.311L183.902 110.83" stroke="#263238" stroke-width="0.75" stroke-linecap="round" stroke-linejoin="round"/>
<path d="M188.093 107.172C188.471 107.172 188.777 106.389 188.777 105.422C188.777 104.456 188.471 103.673 188.093 103.673C187.715 103.673 187.409 104.456 187.409 105.422C187.409 106.389 187.715 107.172 188.093 107.172Z" fill="#263238"/>
<path d="M185.277 101.693C185.277 101.693 186.192 98.9498 188.157 99.713" stroke="#263238" stroke-width="0.75" stroke-linecap="round" stroke-linejoin="round"/>
<path d="M163.944 94.9897C163.944 94.9897 163.224 90.4177 156.938 90.4177C150.652 90.4177 150.537 99.5545 152.064 103.378C153.59 107.201 159.22 108.713 161.812 106.884C164.404 105.055 164.692 101.844 164.692 100.332C164.555 98.5374 164.305 96.753 163.944 94.9897Z" fill="#263238" stroke="#263238" stroke-linecap="round" stroke-linejoin="round"/>
<path d="M174.304 106.56C174.304 106.56 181.008 105.797 182.073 103.054C183.139 100.31 181.008 98.4816 180.705 97.7256C180.403 96.9696 187.408 97.2648 188.625 91.3248C189.842 85.3848 186.192 84.4704 185.126 85.3848C184.06 86.2992 184.06 90.1081 184.06 90.1081C184.06 90.1081 180.856 85.6873 177.962 85.2265C175.068 84.7657 174.614 85.8384 175.37 86.904C176.202 87.8973 177.12 88.8153 178.113 89.6473C178.113 89.6473 169.74 86.148 165.6 90.72C161.46 95.292 159.508 100.469 163.166 105.653C165.366 108.764 168.305 111.278 171.72 112.968C171.72 112.968 172.022 108.547 174.304 106.56Z" fill="#263238" stroke="#263238" stroke-linecap="round" stroke-linejoin="round"/>
<path d="M175.22 107.633C175.22 107.633 174.003 102.456 172.023 105.041C170.043 107.626 171.72 110.527 172.937 111.744C174.154 112.961 176.444 111.895 176.444 111.895" fill="white"/>
<path d="M175.22 107.633C175.22 107.633 174.003 102.456 172.023 105.041C170.043 107.626 171.72 110.527 172.937 111.744C174.154 112.961 176.444 111.895 176.444 111.895" stroke="#263238" stroke-linecap="round" stroke-linejoin="round"/>
<path d="M240.732 128.506C240.732 128.506 244.692 131.098 243.777 132.163C242.713 133.156 241.539 134.023 240.278 134.748C240.278 134.748 236.923 133.078 235.404 132.163C233.885 131.249 235.706 129.722 237.225 128.808C238.745 127.894 239.817 127.44 240.732 128.506Z" fill="white" stroke="#263238" stroke-linecap="round" stroke-linejoin="round"/>
<path d="M177.962 127.894L190.922 131.854C192.902 132.466 197.626 132.314 197.626 132.314C201.94 131.928 206.218 131.205 210.42 130.154C216.972 128.477 230.227 127.865 230.227 127.865C230.227 127.865 236.628 126.187 240.127 126.648L249.574 127.865C248.773 128.486 247.835 128.906 246.838 129.089C245.16 129.391 240.89 128.628 239.976 128.93C239.201 129.338 238.525 129.91 237.996 130.608C237.996 130.608 241.042 133.351 241.042 134.114C241.042 134.878 240.739 136.274 239.825 136.094C238.91 135.914 238.91 135.029 237.665 134.417C236.419 133.805 235.073 133.502 233.395 132.588C232.458 132.092 231.59 131.478 230.81 130.759C230.558 130.514 222.667 134.597 221.746 134.978C218.354 136.427 214.874 137.661 211.327 138.672C204.538 140.58 197.129 141.761 190.13 140.357C185.558 139.442 177.941 136.858 177.941 136.858C177.941 136.858 173.218 134.698 173.527 130.759C173.837 126.821 177.962 127.894 177.962 127.894Z" fill="white" stroke="#263238" stroke-linecap="round" stroke-linejoin="round"/>
<path d="M181.008 131.551C181.008 131.551 177.048 124.848 173.239 123.019C169.43 121.19 165.6 126.216 163.642 130.637C161.683 135.058 162 141.912 162.425 148.32C162.85 154.728 165.931 162 165.931 162C165.931 162 159.379 169.92 157.853 177.386C156.326 184.853 158.465 194.602 159.379 201.305C160.294 208.008 160.747 219.132 160.747 219.132C160.747 219.132 156.636 223.704 156.024 229.342C155.412 234.979 153.295 259.322 153.295 262.217C153.295 265.111 152.69 269.381 153.295 270.137C153.9 270.893 153.907 270.857 154.519 270.857C155.131 270.857 169.445 269.489 170.669 268.423C171.893 267.358 172.49 266.594 171.122 265.982C169.754 265.37 158.162 260.942 158.018 259.74C157.874 258.538 168.818 231.278 170.647 226.404C172.476 221.53 174.456 200.196 175.219 196.999C175.982 193.802 177.509 188.006 177.509 188.006C182.893 187.599 188.251 186.892 193.558 185.89C203.918 184.061 213.631 179.093 213.631 179.093C213.631 179.093 208.361 189.007 210.283 195.559C212.206 202.111 212.998 211.399 213.408 217.771C213.818 224.143 212.969 223.531 213.818 224.122C214.668 224.712 220.874 221.81 222.595 221.566C224.316 221.321 230.558 220.601 232.56 219.319C234.562 218.038 225.828 216.763 222.163 215.366C218.498 213.97 218.304 213.206 218.304 213.206C218.304 213.206 218.167 208.274 222.293 188.222C224.345 178.222 225.252 170.021 222.595 169.214C219.938 168.408 198.115 168.854 192.794 170.23C189.618 171.041 186.711 172.672 184.363 174.96C184.363 174.96 181.922 164.448 182.203 160.639C182.484 156.83 183.118 151.798 183.118 151.798C183.118 151.798 187.682 150.127 187.531 146.16C187.38 142.193 184.334 139.154 182.959 136.721C182.092 135.087 181.436 133.35 181.008 131.551Z" fill="white" stroke="#263238" stroke-linecap="round" stroke-linejoin="round"/>
<path d="M171.122 266.047C169.949 265.529 161.302 262.217 158.738 260.51C158.369 260.899 158.165 261.415 158.17 261.95C158.415 262.785 158.721 263.601 159.084 264.391L153.13 266.004C153.007 267.963 152.928 269.712 153.295 270.18C153.907 270.9 153.907 270.9 154.519 270.9C155.131 270.9 169.445 269.532 170.669 268.466C171.893 267.401 172.49 266.659 171.122 266.047Z" fill="#FDC9FF" stroke="#263238" stroke-linecap="round" stroke-linejoin="round"/>
<path d="M220.054 199.93C220.608 196.769 221.328 192.931 222.293 188.258C224.345 178.258 225.252 170.057 222.595 169.25C219.939 168.444 198.115 168.89 192.795 170.266C189.713 171.058 185.688 172.174 185.487 172.426C185.141 170.906 182.203 165.226 182.203 161.366C175.781 161.777 169.92 162.18 169.582 162.31L163.901 164.722C161.842 167.681 158.861 172.642 157.853 177.394C156.327 184.86 158.465 194.609 159.379 201.312C160.294 208.015 160.747 219.139 160.747 219.139C160.747 219.139 156.636 223.711 156.024 229.349C155.635 232.949 152.921 247.464 153.094 254.153C155.38 254.333 157.68 254.158 159.912 253.634C162.382 246.557 169.402 229.774 170.647 226.454C172.476 221.58 174.456 200.246 175.219 197.05C175.983 193.853 177.509 188.057 177.509 188.057C182.894 187.65 188.252 186.943 193.558 185.94C203.919 184.111 213.631 179.143 213.631 179.143C213.631 179.143 208.361 189.058 210.283 195.61C210.766 197.266 211.183 199.102 211.536 201.017C214.421 201.307 217.334 200.936 220.054 199.93Z" fill="#263238" stroke="#263238" stroke-linecap="round" stroke-linejoin="round"/>
<path d="M182.232 160.654C182.534 156.845 183.146 151.812 183.146 151.812C183.146 151.812 187.711 150.142 187.56 146.174C187.409 142.207 184.363 139.169 182.988 136.735C182.11 135.099 181.444 133.357 181.008 131.551C181.008 131.551 177.048 124.848 173.239 123.019C169.43 121.19 165.6 126.216 163.642 130.637C161.683 135.058 162 141.912 162.425 148.32C162.85 154.728 165.931 162 165.931 162C165.931 162 160.733 168.3 158.522 174.96C162.592 176.674 167.005 177.414 171.41 177.12C178.661 176.587 183.593 174.082 185.486 172.454C184.781 169.042 182.03 163.181 182.232 160.654Z" fill="#FDC9FF" stroke="#263238" stroke-linecap="round" stroke-linejoin="round"/>
<path d="M176.746 140.695C176.746 140.695 172.887 143.64 165.687 145.08" stroke="#263238" stroke-linecap="round" stroke-linejoin="round"/>
<path d="M177.206 141.84C177.206 141.84 173.606 146.88 169.646 148.32" stroke="#263238" stroke-linecap="round" stroke-linejoin="round"/>
<path d="M165.6 171.871C164.823 172.325 164.023 172.757 163.195 173.16" stroke="#263238" stroke-linecap="round" stroke-linejoin="round"/>
<path d="M180.806 156.96C177.551 161.99 173.403 166.383 168.566 169.92" stroke="#263238" stroke-linecap="round" stroke-linejoin="round"/>
<path d="M191.067 102.535V105.941C191.065 106.115 191.127 106.285 191.241 106.417C191.355 106.55 191.513 106.636 191.686 106.661L212.919 109.44C213.02 109.452 213.123 109.443 213.221 109.412C213.318 109.381 213.408 109.33 213.485 109.262C213.561 109.194 213.622 109.11 213.663 109.017C213.705 108.923 213.726 108.822 213.725 108.72L213.761 101.923C213.761 101.732 213.685 101.549 213.55 101.414C213.415 101.279 213.232 101.203 213.041 101.203L191.765 101.772C191.669 101.775 191.574 101.797 191.486 101.837C191.398 101.877 191.319 101.934 191.254 102.006C191.189 102.077 191.139 102.16 191.107 102.251C191.075 102.342 191.061 102.439 191.067 102.535Z" fill="#263238" stroke="#263238" stroke-linecap="round" stroke-linejoin="round"/>
<path d="M197.618 110.376C197.618 110.376 193.5 109.311 193.197 108.087C193.016 107.38 192.915 106.656 192.895 105.927C192.895 105.927 194.875 106.387 195.487 106.078C196.099 105.768 195.638 97.2434 196.401 96.7898C197.165 96.3362 199.598 95.2634 200.513 97.3946C201.427 99.5258 200.815 98.921 200.815 98.921C201.62 98.7518 202.451 98.7518 203.256 98.921C204.065 99.2186 204.801 99.6849 205.416 100.289C205.416 100.289 207.396 99.9866 207.857 101.355C208.317 102.723 206.179 108.519 204.804 111.111C203.429 113.703 202.975 114.761 202.975 114.761C202.975 114.761 201.146 137.621 200.095 142.035C199.044 146.448 197.28 149.04 196.502 149.04C195.725 149.04 182.232 142.798 176.745 140.667C171.259 138.535 167.601 139.083 166.665 133.596C165.729 128.11 169.545 126.799 172.764 126.799C175.982 126.799 192.722 136.879 192.722 136.879C192.722 136.879 198.05 121.039 198.05 116.77C198.106 114.63 197.961 112.489 197.618 110.376Z" fill="white" stroke="#263238" stroke-linecap="round" stroke-linejoin="round"/>
<path d="M232.56 219.384C234.569 218.11 225.828 216.828 222.164 215.431C221.113 215.052 220.102 214.569 219.147 213.991C218.967 214.183 218.829 214.41 218.741 214.658C218.653 214.906 218.617 215.169 218.636 215.431C218.728 216.345 218.921 217.246 219.212 218.117C219.212 218.117 215.914 219.017 213.502 219.751C213.646 224.071 213.07 223.675 213.819 224.179C214.568 224.683 220.875 221.868 222.596 221.623C224.316 221.378 230.559 220.666 232.56 219.384Z" fill="#FDC9FF" stroke="#263238" stroke-linecap="round" stroke-linejoin="round"/>
<path d="M177.509 188.071L181.166 180" stroke="#263238" stroke-width="0.75" stroke-linecap="round" stroke-linejoin="round"/>
<path d="M208.75 301.795C211.844 301.795 214.352 299.287 214.352 296.194C214.352 293.1 211.844 290.592 208.75 290.592C205.656 290.592 203.148 293.1 203.148 296.194C203.148 299.287 205.656 301.795 208.75 301.795Z" fill="#263238" stroke="#263238" stroke-width="0.75" stroke-linecap="round" stroke-linejoin="round"/>
<path d="M205.2 291.442C205.2 291.442 206.388 296.532 207.065 297.554C207.742 298.577 209.945 299.081 210.463 296.87C210.982 294.66 208.599 291.11 208.599 291.11L205.2 291.442Z" fill="white" stroke="#263238" stroke-width="0.75" stroke-linecap="round" stroke-linejoin="round"/>
<path d="M136.246 301.795C139.34 301.795 141.848 299.287 141.848 296.194C141.848 293.1 139.34 290.592 136.246 290.592C133.152 290.592 130.645 293.1 130.645 296.194C130.645 299.287 133.152 301.795 136.246 301.795Z" fill="#263238" stroke="#263238" stroke-width="0.75" stroke-linecap="round" stroke-linejoin="round"/>
<path d="M139.809 291.442C139.809 291.442 138.621 296.532 137.945 297.554C137.268 298.577 135.065 299.081 134.546 296.87C134.028 294.66 136.418 291.11 136.418 291.11L139.809 291.442Z" fill="white" stroke="#263238" stroke-width="0.75" stroke-linecap="round" stroke-linejoin="round"/>
<path d="M223.049 243.9C223.12 243.737 223.151 243.56 223.141 243.382C223.131 243.205 223.08 243.032 222.992 242.878L221.84 223.279C221.824 223.013 221.719 222.759 221.543 222.558C221.367 222.358 221.13 222.221 220.868 222.171L131.256 204.754L129.816 197.151C129.609 196.063 129.031 195.082 128.182 194.372C127.333 193.662 126.265 193.267 125.158 193.255L108.598 193.111C108.279 193.111 107.973 193.238 107.748 193.464C107.522 193.689 107.396 193.995 107.396 194.314C107.396 194.633 107.522 194.938 107.748 195.164C107.973 195.389 108.279 195.516 108.598 195.516L125.158 195.66C125.707 195.667 126.238 195.864 126.659 196.217C127.08 196.569 127.366 197.057 127.469 197.597L135.915 242.439C135.915 242.439 135.915 242.496 135.915 242.525C135.911 242.712 135.953 242.898 136.037 243.065L141.43 271.671C141.329 271.94 141.329 272.237 141.43 272.506C141.43 272.506 142.604 275.796 141.07 280.541C139.945 283.727 138.139 286.628 135.778 289.044C135.594 289.228 135.477 289.469 135.447 289.728H129.14C128.982 289.728 128.825 289.759 128.679 289.82C128.533 289.88 128.401 289.969 128.289 290.08C128.178 290.192 128.089 290.325 128.029 290.47C127.968 290.616 127.937 290.773 127.937 290.931C127.937 291.088 127.968 291.245 128.029 291.391C128.089 291.537 128.178 291.669 128.289 291.781C128.401 291.892 128.533 291.981 128.679 292.041C128.825 292.102 128.982 292.133 129.14 292.133H211.126C211.445 292.133 211.751 292.006 211.976 291.781C212.202 291.555 212.328 291.249 212.328 290.931C212.328 290.612 212.202 290.306 211.976 290.08C211.751 289.855 211.445 289.728 211.126 289.728H174.176C173.456 287.518 172.613 282.6 175.421 280.116C178.882 277.093 181.288 273.045 182.29 268.56L223.049 262.757C223.348 262.716 223.62 262.563 223.811 262.329C224.002 262.095 224.098 261.798 224.079 261.497L223.049 243.9ZM184.378 265.81L184.09 263.398L190.116 262.786L190.304 264.946L184.378 265.81ZM175.68 267.048L175.335 264.283L181.7 263.643L181.995 266.148L175.68 267.048ZM146.211 210.111L148.191 222.48L141.164 221.76L138.723 208.663L146.211 210.111ZM157.227 212.271L158.508 223.524L150.675 222.732L148.724 210.622L157.227 212.271ZM166.587 214.092L167.897 224.467L160.964 223.747L159.704 212.731L166.587 214.092ZM176.105 215.943L177.207 225.36L170.345 224.64L169.071 214.56L176.105 215.943ZM220.551 242.251L210.377 242.143C210.096 238.176 209.83 234.36 209.607 231.091L219.953 232.135L220.551 242.251ZM207.958 242.115L200.484 242.035L199.671 230.091L207.18 230.811C207.404 234.173 207.677 238.104 207.951 242.093L207.958 242.115ZM154.08 243.922L160.841 243.994L163.001 263.11L157.241 263.693L154.08 243.922ZM154.865 263.938L149.105 264.514L145.253 243.828L151.618 243.9L154.865 263.938ZM179.129 241.783L172.476 241.711L170.64 227.146L177.48 227.866L179.129 241.783ZM179.943 228.103L187.143 228.823L188.309 241.92L181.563 241.848L179.943 228.103ZM170.05 241.711L162.994 241.632L161.23 226.217L168.185 226.937L170.05 241.711ZM160.56 241.589L153.684 241.51L151.049 225.173L158.768 225.951L160.56 241.589ZM163.26 244.023L170.345 244.102L172.613 262.138L165.413 262.858L163.26 244.023ZM172.772 244.123L179.403 244.195L181.44 261.252L175.047 261.893L172.772 244.123ZM181.829 244.224L188.504 244.296L189.893 260.388L183.795 261.007L181.829 244.224ZM190.923 244.318L198.209 244.397L199.232 259.445L192.291 260.165L190.923 244.318ZM190.728 241.92L189.612 229.061L197.237 229.831L198.065 241.999L190.728 241.92ZM199.498 227.643L199.008 220.378L206.561 221.818C206.619 222.819 206.784 225.202 207 228.37L199.498 227.643ZM197.072 227.398L189.404 226.62L188.684 218.376L196.56 219.895L197.072 227.398ZM186.992 226.375L179.684 225.655L178.56 216.403L186.214 217.887L186.992 226.375ZM148.608 224.935L151.28 241.495L144.85 241.423L141.646 224.23L148.608 224.935ZM142.395 241.402L138.168 241.359L134.813 223.546L139.133 223.985L142.395 241.402ZM142.848 243.814L146.751 264.773L142.654 265.191L138.622 243.771L142.848 243.814ZM143.1 267.574L147.197 267.163L147.917 271.03L143.856 271.606L143.1 267.574ZM150.3 270.691L149.58 266.919L155.254 266.343L155.83 269.899L150.3 270.691ZM158.22 269.561L157.666 266.105L163.318 265.529L163.685 268.783L158.22 269.561ZM166.068 268.445L165.708 265.284L172.908 264.564L173.268 267.444L166.068 268.445ZM192.521 262.577L199.419 261.857L199.541 263.657L192.701 264.629L192.521 262.577ZM201.816 261.634L209.276 260.914C209.312 261.418 209.34 261.879 209.369 262.318L201.932 263.376L201.816 261.634ZM201.651 259.229L200.65 244.455L208.131 244.534C208.484 249.574 208.851 254.614 209.103 258.48L201.651 259.229ZM210.543 244.563L220.688 244.671L221.408 257.235L211.479 258.235C211.198 254.009 210.867 249.235 210.536 244.534L210.543 244.563ZM219.802 229.68L209.434 228.636C209.232 225.756 209.081 223.539 209.002 222.315L219.492 224.352L219.802 229.68ZM136.181 208.167L138.672 221.501L134.352 221.069L131.76 207.295L136.181 208.167ZM173.823 278.316C170.352 281.383 170.864 286.697 171.663 289.728H138.399C140.582 287.266 142.255 284.395 143.324 281.283C144.115 278.93 144.393 276.436 144.137 273.967L149.134 273.247C149.194 273.251 149.254 273.251 149.314 273.247C149.386 273.255 149.458 273.255 149.53 273.247C149.643 273.224 149.752 273.185 149.854 273.132L179.72 268.877C178.712 272.529 176.663 275.809 173.823 278.316ZM211.752 261.907C211.752 261.49 211.695 261.051 211.666 260.611L221.559 259.611L221.616 260.511L211.752 261.907Z" fill="white" stroke="#263238" stroke-linecap="round" stroke-linejoin="round"/>
<path d="M122.493 196.38H105.005C104.677 196.398 104.35 196.349 104.042 196.236C103.734 196.123 103.453 195.948 103.215 195.723C102.977 195.498 102.787 195.226 102.657 194.925C102.528 194.624 102.461 194.299 102.461 193.972C102.461 193.644 102.528 193.319 102.657 193.018C102.787 192.717 102.977 192.445 103.215 192.22C103.453 191.995 103.734 191.82 104.042 191.707C104.35 191.594 104.677 191.545 105.005 191.563H122.493C123.109 191.597 123.689 191.865 124.113 192.313C124.537 192.761 124.774 193.355 124.774 193.972C124.774 194.588 124.537 195.182 124.113 195.63C123.689 196.078 123.109 196.346 122.493 196.38Z" fill="#263238" stroke="#263238" stroke-linecap="round" stroke-linejoin="round"/>
<path d="M149.588 103.363H135.166" stroke="#263238" stroke-linecap="round" stroke-linejoin="round"/>
<path d="M120.024 130.111H115.898" stroke="#263238" stroke-linecap="round" stroke-linejoin="round"/>
<path d="M157.904 130.111H125.511" stroke="#263238" stroke-linecap="round" stroke-linejoin="round"/>
<path d="M129.607 210.967H84.6289" stroke="#263238" stroke-linecap="round" stroke-linejoin="round"/>
<path d="M112.932 219.564H93.7227" stroke="#263238" stroke-linecap="round" stroke-linejoin="round"/>
<path d="M155.24 179.546H138.701" stroke="#263238" stroke-linecap="round" stroke-linejoin="round"/>
<path d="M210.463 197.323H197.323" stroke="#263238" stroke-linecap="round" stroke-linejoin="round"/>
<path d="M203.896 194.292H186.206" stroke="#263238" stroke-linecap="round" stroke-linejoin="round"/>
</svg>
