<svg width="20" height="20" viewBox="0 0 20 20" fill="none" xmlns="http://www.w3.org/2000/svg">
<path d="M2.30839 15.2057C2.40839 16.9224 3.33339 18.3307 5.63339 18.3307H14.3667C16.6667 18.3307 17.5834 16.9224 17.6917 15.2057L18.1251 8.3224C18.2417 6.5224 16.8084 4.9974 15.0001 4.9974C14.4917 4.9974 14.0251 4.70573 13.7917 4.25573L13.1917 3.0474C12.8084 2.28906 11.8084 1.66406 10.9584 1.66406H9.05006C8.19172 1.66406 7.19172 2.28906 6.80839 3.0474L6.20839 4.25573C5.97506 4.70573 5.50839 4.9974 5.00006 4.9974C3.19172 4.9974 1.75839 6.5224 1.87506 8.3224L2.09172 11.7141" stroke="#121212" stroke-width="1.5" stroke-linecap="round" stroke-linejoin="round"/>
<path d="M8.75024 6.66406H11.2502" stroke="#121212" stroke-width="1.5" stroke-linecap="round" stroke-linejoin="round"/>
<path d="M10.0001 15.0026C11.4917 15.0026 12.7084 13.7859 12.7084 12.2943C12.7084 10.8026 11.4917 9.58594 10.0001 9.58594C8.50841 9.58594 7.29175 10.8026 7.29175 12.2943C7.29175 13.7859 8.50841 15.0026 10.0001 15.0026Z" stroke="#121212" stroke-width="1.5" stroke-linecap="round" stroke-linejoin="round"/>
</svg>
