<svg width="40" height="40" viewBox="0 0 40 40" fill="none" xmlns="http://www.w3.org/2000/svg">
<circle cx="20" cy="20" r="20" fill="#FFF5F9"/>
<path d="M12.6416 16.1992L19.9999 20.4576L27.3083 16.2242" stroke="#EE2A7B" stroke-width="1.5" stroke-linecap="round" stroke-linejoin="round"/>
<path d="M20 28.0076V20.4492" stroke="#EE2A7B" stroke-width="1.5" stroke-linecap="round" stroke-linejoin="round"/>
<path d="M11.9917 21.0411V22.3578C11.9917 23.5078 12.8167 24.9078 13.825 25.4661L18.275 27.9411C19.225 28.4661 20.7834 28.4661 21.7334 27.9411L26.1834 25.4661C27.1917 24.9078 28.0167 23.5078 28.0167 22.3578V17.6411C28.0167 16.4911 27.1917 15.0911 26.1834 14.5328L21.7334 12.0578C20.7834 11.5328 19.225 11.5328 18.275 12.0578L13.825 14.5328C12.8167 15.0911 11.9917 16.4911 11.9917 17.6411" stroke="#EE2A7B" stroke-width="1.5" stroke-linecap="round" stroke-linejoin="round"/>
</svg>
