<svg width="25" height="24" viewBox="0 0 25 24" fill="none" xmlns="http://www.w3.org/2000/svg">
<path d="M9.59375 6C8.49375 6 7.59375 6.9 7.59375 8C7.59375 9.1 8.49375 10 9.59375 10C10.6938 10 11.5938 9.1 11.5938 8" stroke="#EE2A7B" stroke-width="1.5" stroke-linecap="round" stroke-linejoin="round"/>
<path d="M2.59375 12.98V15C2.59375 20 4.59375 22 9.59375 22H15.5938C20.5938 22 22.5938 20 22.5938 15V10" stroke="#EE2A7B" stroke-width="1.5" stroke-linecap="round" stroke-linejoin="round"/>
<path d="M13.5938 2H9.59375C4.59375 2 2.59375 4 2.59375 9" stroke="#EE2A7B" stroke-width="1.5" stroke-linecap="round" stroke-linejoin="round"/>
<path d="M18.5938 8V2L20.5938 4" stroke="#EE2A7B" stroke-width="1.5" stroke-linecap="round" stroke-linejoin="round"/>
<path d="M18.5938 2L16.5938 4" stroke="#EE2A7B" stroke-width="1.5" stroke-linecap="round" stroke-linejoin="round"/>
<path d="M3.26367 18.9505L8.19367 15.6405C8.98367 15.1105 10.1237 15.1705 10.8337 15.7805L11.1637 16.0705C11.9437 16.7405 13.2037 16.7405 13.9837 16.0705L18.1437 12.5005C18.9237 11.8305 20.1837 11.8305 20.9637 12.5005L22.5937 13.9005" stroke="#EE2A7B" stroke-width="1.5" stroke-linecap="round" stroke-linejoin="round"/>
</svg>
