<svg width="24" height="40" viewBox="0 0 24 40" fill="none" xmlns="http://www.w3.org/2000/svg">
<path d="M4.49322 29.3951C5.03456 29.3951 5.57591 29.4048 6.11725 29.3855C6.41692 29.3758 6.53293 29.4725 6.55226 29.7818C6.75526 32.8945 8.96898 35.3209 12.0624 35.8333C15.7551 36.452 19.3319 33.6002 19.5349 29.8785C19.5542 29.4821 19.6895 29.3661 20.0665 29.3758C21.1299 29.3951 22.2029 29.3855 23.2663 29.3855C23.5273 29.3855 23.653 29.4531 23.6433 29.7528C23.4983 34.4606 20.1729 38.569 15.5908 39.6904C9.33632 41.2177 3.19785 36.9256 2.49217 30.5358C2.46317 30.2652 2.47284 29.9848 2.44384 29.7045C2.4245 29.4725 2.52117 29.3855 2.74351 29.3951C3.34286 29.3951 3.92287 29.3951 4.49322 29.3951Z" fill="#EE2A7B"/>
<path d="M10.8641 8.83404C11.0285 7.75135 11.1541 6.71699 11.3378 5.70197C11.5311 4.64828 11.7052 3.58492 12.0338 2.56024C12.4205 1.32288 13.3002 0.501195 14.5762 0.124187C15.5526 -0.156152 16.4226 0.0371856 17.1573 0.713866C18.385 1.86422 18.82 3.29492 18.385 4.91895C17.7373 7.38401 16.0842 9.03704 13.8512 10.1294C13.2422 10.4291 12.5365 10.5354 11.8695 10.7384C11.7245 10.7867 11.5698 10.8544 11.4635 10.9607C10.6998 11.7534 9.64611 11.9468 8.71809 11.3861C8.47642 11.2411 8.33141 11.2701 8.10908 11.4054C6.72671 12.2851 5.24768 12.8941 3.59465 12.8265C2.8793 12.7975 2.10595 12.6138 1.46794 12.2948C0.0179044 11.5698 -0.388104 10.0037 0.385246 8.57303C1.14893 7.14233 2.8503 6.42699 4.46467 6.93933C5.08335 7.13267 5.66336 7.49034 6.2337 7.81902C6.67838 8.08002 7.06505 8.41836 7.4904 8.70837C7.96407 9.03704 8.40875 9.26904 9.01776 8.8437C9.51077 8.4957 10.1681 8.60203 10.8641 8.83404ZM11.2605 10.1294C12.8458 9.71372 14.1799 9.13371 15.2046 8.00269C16.3356 6.74599 16.4323 4.83195 15.4559 3.45926C15.0886 2.94691 14.6825 2.88891 14.1992 3.30459C13.9865 3.48826 13.7642 3.69126 13.6579 3.9426C13.2712 4.77395 12.8555 5.6053 12.6042 6.48499C12.2658 7.69335 12.0338 8.9307 11.2605 10.1294ZM7.37439 11.0574C6.73638 10.8351 6.09837 10.6611 5.51835 10.3807C4.83201 10.0521 4.22299 9.57838 3.52698 9.27871C2.97597 9.03704 2.36695 8.86304 1.77727 8.8437C1.01359 8.8147 0.58825 9.42371 0.713919 10.1777C0.858922 11.0767 1.40027 11.7051 2.24129 11.9758C4.12633 12.5848 5.82769 12.0048 7.37439 11.0574Z" fill="#FC94FF"/>
<path d="M5.70847 10.4688C5.18646 10.9908 4.72245 11.5709 4.31644 12.1992C5.39913 12.0832 6.41415 11.6385 7.37117 11.0585C6.80083 10.8555 6.24015 10.7008 5.70847 10.4688Z" fill="#EE2A7B"/>
<path d="M15.2137 8.00195C15.3007 7.90528 15.378 7.80861 15.4554 7.70228C14.682 7.51861 13.8893 7.42194 13.058 7.42194C12.826 7.42194 12.5843 7.4316 12.3523 7.45094C12.1106 8.34996 11.84 9.24898 11.2696 10.1287C12.855 9.71299 14.189 9.14264 15.2137 8.00195Z" fill="#EE2A7B"/>
<path d="M16.6833 8.086C15.91 8.92702 14.9529 9.6037 13.8509 10.1451C13.2419 10.4447 12.5362 10.5511 11.8692 10.7541C11.7242 10.8024 11.5695 10.8701 11.4632 10.9764C10.6995 11.7691 9.64582 11.9624 8.7178 11.4017C8.47613 11.2567 8.33112 11.2857 8.10878 11.4211C6.83276 12.2331 5.45039 12.8131 3.94236 12.8421C3.14968 14.3115 2.69534 15.9838 2.69534 17.7722C2.69534 23.495 7.33543 28.1254 13.0486 28.1254C18.7617 28.1254 23.4018 23.4853 23.4018 17.7722C23.4114 13.3448 20.6081 9.55537 16.6833 8.086ZM13.0582 24.1813C9.52981 24.1813 6.65875 21.32 6.65875 17.7819C6.65875 14.2535 9.52015 11.3824 13.0582 11.3824C16.5963 11.3824 19.4577 14.2438 19.4577 17.7819C19.448 21.32 16.5866 24.1813 13.0582 24.1813Z" fill="#EE2A7B"/>
<path d="M9.0008 8.86428C9.52281 8.49694 10.1705 8.60328 10.8665 8.83528C10.9245 8.41961 10.9825 8.02326 11.0405 7.61725C9.85148 7.84926 8.7398 8.28427 7.73444 8.89328C8.11145 9.11562 8.49812 9.21229 9.0008 8.86428Z" fill="#EE2A7B"/>
</svg>
