<svg width="20" height="20" viewBox="0 0 20 20" fill="none" xmlns="http://www.w3.org/2000/svg">
<path d="M2.50879 13.0918C2.50879 16.8334 4.00879 18.3334 7.75046 18.3334H12.2421C15.9838 18.3334 17.4838 16.8334 17.4838 13.0918V9.3501" stroke="#2E2E3A" stroke-width="1.5" stroke-linecap="round" stroke-linejoin="round"/>
<path d="M10.0007 10.0001C11.5257 10.0001 12.6507 8.75841 12.5007 7.23341L11.9507 1.66675H8.05906L7.50072 7.23341C7.35072 8.75841 8.47572 10.0001 10.0007 10.0001Z" stroke="#2E2E3A" stroke-width="1.5" stroke-linecap="round" stroke-linejoin="round"/>
<path d="M15.2587 10.0001C16.942 10.0001 18.1753 8.63341 18.0087 6.95841L17.7753 4.66675C17.4753 2.50008 16.642 1.66675 14.4587 1.66675H11.917L12.5003 7.50841C12.642 8.88341 13.8837 10.0001 15.2587 10.0001Z" stroke="#2E2E3A" stroke-width="1.5" stroke-linecap="round" stroke-linejoin="round"/>
<path d="M4.70063 10.0001C6.07563 10.0001 7.3173 8.88341 7.45063 7.50841L7.63397 5.66675L8.03397 1.66675H5.4923C3.30897 1.66675 2.47563 2.50008 2.17563 4.66675L1.95063 6.95841C1.78397 8.63341 3.0173 10.0001 4.70063 10.0001Z" stroke="#2E2E3A" stroke-width="1.5" stroke-linecap="round" stroke-linejoin="round"/>
<path d="M10.0003 14.1667C8.60866 14.1667 7.91699 14.8584 7.91699 16.2501V18.3334H12.0837V16.2501C12.0837 14.8584 11.392 14.1667 10.0003 14.1667Z" stroke="#2E2E3A" stroke-width="1.5" stroke-linecap="round" stroke-linejoin="round"/>
</svg>
