<svg width="24" height="24" viewBox="0 0 24 24" fill="none" xmlns="http://www.w3.org/2000/svg">
<path fill-rule="evenodd" clip-rule="evenodd" d="M12 24C18.6274 24 24 18.6274 24 12C24 5.37258 18.6274 0 12 0C5.37258 0 0 5.37258 0 12C0 18.6274 5.37258 24 12 24ZM12 22C17.5228 22 22 17.5228 22 12C22 6.47715 17.5228 2 12 2C6.47715 2 2 6.47715 2 12C2 17.5228 6.47715 22 12 22Z" fill="url(#paint0_angular_1191_13065)"/>
<path fill-rule="evenodd" clip-rule="evenodd" d="M22.7823 9.60068C23.3301 9.53001 23.8314 9.91675 23.902 10.4645C23.9677 10.9737 24.0007 11.4866 24.0007 12C24.0007 12.5523 23.553 13 23.0007 13C22.4484 13 22.0007 12.5523 22.0007 12C22.0007 11.5721 21.9732 11.1447 21.9185 10.7204C21.8478 10.1727 22.2346 9.67135 22.7823 9.60068Z" fill="#EE2A7B"/>
<defs>
<radialGradient id="paint0_angular_1191_13065" cx="0" cy="0" r="1" gradientUnits="userSpaceOnUse" gradientTransform="translate(12 12) scale(12)">
<stop stop-color="#FF68A6"/>
<stop offset="0.0001" stop-color="#FFB0D1"/>
<stop offset="1" stop-color="#EE2A7B"/>
</radialGradient>
</defs>
</svg>
