<svg width="21" height="20" viewBox="0 0 21 20" fill="none" xmlns="http://www.w3.org/2000/svg">
<path d="M18 4.98698C15.225 4.71198 12.4333 4.57031 9.65 4.57031C8 4.57031 6.35 4.65365 4.7 4.82031L3 4.98698" stroke="#B42318" stroke-width="1.5" stroke-linecap="round" stroke-linejoin="round"/>
<path d="M7.58325 4.13906L7.76659 3.0474C7.89992 2.25573 7.99992 1.66406 9.40825 1.66406H11.5916C12.9999 1.66406 13.1083 2.28906 13.2333 3.05573L13.4166 4.13906" stroke="#B42318" stroke-width="1.5" stroke-linecap="round" stroke-linejoin="round"/>
<path d="M13.1751 18.3339H7.82508C5.50008 18.3339 5.42508 17.3172 5.33341 16.0089L4.79175 7.61719" stroke="#B42318" stroke-width="1.5" stroke-linecap="round" stroke-linejoin="round"/>
<path d="M16.2084 7.61719L15.6667 16.0089" stroke="#B42318" stroke-width="1.5" stroke-linecap="round" stroke-linejoin="round"/>
<path d="M9.1084 13.75H11.8834" stroke="#B42318" stroke-width="1.5" stroke-linecap="round" stroke-linejoin="round"/>
<path d="M11.1833 10.4141H12.5833" stroke="#B42318" stroke-width="1.5" stroke-linecap="round" stroke-linejoin="round"/>
<path d="M8.41675 10.4141H9.10841" stroke="#B42318" stroke-width="1.5" stroke-linecap="round" stroke-linejoin="round"/>
</svg>
